<svg xmlns="http://www.w3.org/2000/svg" width="391.157" height="400.109" viewBox="0 0 391.157 400.109">
  <g id="XMLID_629_" transform="translate(-60.217 -0.009)">
    <circle id="XMLID_494_" cx="119.097" cy="119.097" r="119.097" transform="translate(87.346 204.546) rotate(-45)" fill="#31ff98"/>
    <g id="XMLID_2843_">
      <circle id="XMLID_2844_" cx="21.123" cy="21.123" r="21.123" transform="translate(107.668 310.423)" fill="#b7eabc"/>
    </g>
    <g id="XMLID_2841_">
      <circle id="XMLID_2842_" cx="21.123" cy="21.123" r="21.123" transform="translate(107.668 310.423)" fill="#31ff98"/>
    </g>
    <g id="Group_1" data-name="Group 1">
      <circle id="XMLID_2830_" cx="18.105" cy="18.105" r="18.105" transform="translate(237.693 353.908)" fill="#b7eabc"/>
      <circle id="XMLID_1797_" cx="18.105" cy="18.105" r="18.105" transform="translate(237.693 353.908)" fill="#31ff98"/>
      <circle id="XMLID_1768_" cx="22.581" cy="22.581" r="22.581" transform="matrix(0.987, -0.16, 0.16, 0.987, 229.87, 13.959)" fill="#b7eabc"/>
      <circle id="XMLID_1614_" cx="22.581" cy="22.581" r="22.581" transform="matrix(0.987, -0.16, 0.16, 0.987, 229.87, 13.959)" fill="#31ff98"/>
      <circle id="XMLID_1822_" cx="18.105" cy="18.105" r="18.105" transform="translate(66.515 218.064) rotate(-76.7)" fill="#b7eabc"/>
      <circle id="XMLID_1821_" cx="18.105" cy="18.105" r="18.105" transform="translate(66.515 218.064) rotate(-76.7)" fill="#31ff98"/>
      <circle id="XMLID_1798_" cx="18.105" cy="18.105" r="18.105" transform="translate(397.604 204.563) rotate(-45)" fill="#b7eabc"/>
      <circle id="XMLID_1796_" cx="18.105" cy="18.105" r="18.105" transform="translate(397.604 204.563) rotate(-45)" fill="#31ff98"/>
    </g>
    <g id="XMLID_1788_">
      <circle id="XMLID_1791_" cx="21.123" cy="21.123" r="21.123" transform="matrix(0.987, -0.16, 0.16, 0.987, 350.575, 306.208)" fill="#b7eabc"/>
    </g>
    <g id="XMLID_1786_">
      <circle id="XMLID_1787_" cx="21.123" cy="21.123" r="21.123" transform="matrix(0.987, -0.16, 0.16, 0.987, 350.575, 306.208)" fill="#31ff98"/>
    </g>
    <g id="XMLID_179_">
      <circle id="XMLID_181_" cx="21.123" cy="21.123" r="21.123" transform="translate(179.994 183.417)" fill="#b7eabc"/>
    </g>
    <g id="XMLID_177_">
      <circle id="XMLID_178_" cx="21.123" cy="21.123" r="21.123" transform="translate(179.994 183.417)" fill="#b7eabc"/>
    </g>
    <g id="XMLID_204_">
      <circle id="XMLID_207_" cx="21.123" cy="21.123" r="21.123" transform="matrix(0.987, -0.16, 0.16, 0.987, 252.765, 144.862)" fill="#b7eabc"/>
    </g>
    <g id="XMLID_185_">
      <circle id="XMLID_186_" cx="21.123" cy="21.123" r="21.123" transform="matrix(0.987, -0.16, 0.16, 0.987, 252.765, 144.862)" fill="#b7eabc"/>
    </g>
    <g id="XMLID_212_">
      <circle id="XMLID_213_" cx="21.123" cy="21.123" r="21.123" transform="translate(247.283 238.098)" fill="#b7eabc"/>
    </g>
    <g id="XMLID_210_">
      <circle id="XMLID_211_" cx="21.123" cy="21.123" r="21.123" transform="translate(247.283 238.098)" fill="#b7eabc"/>
    </g>
    <g id="XMLID_1843_">
      <circle id="XMLID_1844_" cx="21.123" cy="21.123" r="21.123" transform="translate(114.916 63.658)" fill="#b7eabc"/>
    </g>
    <g id="XMLID_1833_">
      <circle id="XMLID_1842_" cx="21.123" cy="21.123" r="21.123" transform="translate(114.916 63.658)" fill="#31ff98"/>
    </g>
    <g id="XMLID_1545_">
      <g id="XMLID_1828_">
        <circle id="XMLID_1829_" cx="21.123" cy="21.123" r="21.123" transform="translate(359.219 62.039) rotate(-22.514)" fill="#31ff98"/>
      </g>
      <g id="XMLID_1826_">
        <circle id="XMLID_1827_" cx="21.123" cy="21.123" r="21.123" transform="translate(359.219 62.039) rotate(-22.514)" fill="#31ff98"/>
      </g>
    </g>
    <g id="XMLID_624_">
      <path id="XMLID_1043_" d="M423.272,176.435a28.147,28.147,0,0,0-26.26,18.1h-12.5a127.857,127.857,0,0,0-10.155-41.155A10,10,0,1,0,356,161.317a109.09,109.09,0,0,1-16.349,112.935l-6.3-6.3A10,10,0,0,0,319.212,282.1l6.3,6.3a108.875,108.875,0,0,1-139.422,0l.978-.978a10,10,0,0,0-14.143-14.143l-.978.978a108.875,108.875,0,0,1,0-139.422l8.226,8.226a10,10,0,1,0,14.142-14.143l-8.226-8.226a109.092,109.092,0,0,1,112.525-16.525,10,10,0,1,0,7.856-18.392A127.892,127.892,0,0,0,265.8,75.823V63.595a32.581,32.581,0,1,0-20,0V75.827A128.539,128.539,0,0,0,171.9,106.5l-7.959-7.959A31.15,31.15,0,1,0,149.8,112.686l7.959,7.959a128.539,128.539,0,0,0-30.675,73.895h-12.5a28.1,28.1,0,1,0,0,20h12.5a128.54,128.54,0,0,0,30.676,73.9l-15.207,15.207a31.147,31.147,0,1,0,14.143,14.142L171.9,302.577A128.542,128.542,0,0,0,245.8,333.252v12.5a28.105,28.105,0,1,0,20,0v-12.5a128.549,128.549,0,0,0,73.895-30.675l7.3,7.3a31.151,31.151,0,1,0,14.143-14.142l-7.3-7.3a128.539,128.539,0,0,0,30.675-73.895h12.5a28.1,28.1,0,1,0,26.264-38.1ZM255.8,20.01a12.581,12.581,0,1,1-12.581,12.581A12.595,12.595,0,0,1,255.8,20.01ZM136.039,95.9a11.123,11.123,0,1,1,11.123-11.123A11.136,11.136,0,0,1,136.039,95.9ZM88.324,212.645a8.1,8.1,0,1,1,8.1-8.1A8.114,8.114,0,0,1,88.324,212.645Zm40.468,130.024a11.122,11.122,0,1,1,11.123-11.123A11.136,11.136,0,0,1,128.792,342.669ZM255.8,380.119a8.105,8.105,0,1,1,8.105-8.105,8.114,8.114,0,0,1-8.105,8.105Zm119.1-67.6a11.122,11.122,0,1,1-11.123,11.122A11.135,11.135,0,0,1,374.9,312.515Zm48.377-99.87a8.1,8.1,0,1,1,8.105-8.1A8.115,8.115,0,0,1,423.272,212.645Z"/>
      <path id="XMLID_1052_" d="M169.994,204.54a31.123,31.123,0,1,0,31.123-31.123A31.159,31.159,0,0,0,169.994,204.54Zm42.245,0a11.123,11.123,0,1,1-11.123-11.123A11.136,11.136,0,0,1,212.239,204.54Z"/>
      <path id="XMLID_1055_" d="M277.047,131.171a31.123,31.123,0,1,0,31.123,31.123A31.158,31.158,0,0,0,277.047,131.171Zm0,42.246a11.123,11.123,0,1,1,11.123-11.123A11.136,11.136,0,0,1,277.047,173.417Z"/>
      <path id="XMLID_1058_" d="M268.406,228.1a31.122,31.122,0,1,0,31.122,31.122A31.158,31.158,0,0,0,268.406,228.1Zm0,42.246a11.122,11.122,0,1,1,11.122-11.123A11.136,11.136,0,0,1,268.406,270.344Z"/>
      <path id="XMLID_1061_" d="M386.757,104.7A31.123,31.123,0,1,0,355.635,73.58,31.158,31.158,0,0,0,386.757,104.7Zm0-42.245a11.123,11.123,0,1,1-11.122,11.123,11.136,11.136,0,0,1,11.122-11.123Z"/>
      <path id="XMLID_1062_" d="M339.84,130.16a10,10,0,1,0-7.07-2.93A10.076,10.076,0,0,0,339.84,130.16Z"/>
    </g>
  </g>
</svg>
