<?xml version="1.0" encoding="UTF-8" standalone="no"?><!DOCTYPE svg PUBLIC "-//W3C//DTD SVG 1.1//EN" "http://www.w3.org/Graphics/SVG/1.1/DTD/svg11.dtd"><svg width="100%" height="100%" viewBox="0 0 2892 2084" version="1.1" xmlns="http://www.w3.org/2000/svg" xmlns:xlink="http://www.w3.org/1999/xlink" xml:space="preserve" xmlns:serif="http://www.serif.com/" style="fill-rule:evenodd;clip-rule:evenodd;stroke-linejoin:round;stroke-miterlimit:2;"><g><rect x="396.739" y="8.741" width="2083.33" height="2083.33" style="fill:#fff;fill-rule:nonzero;"/><path d="M396.739,1247.67c-17.275,-45.13 -31.571,-91.396 -42.812,-138.384c-51.055,-213.408 -60.813,-425.233 40.87,-626.471c0.642,-1.275 1.292,-2.545 1.942,-3.82l0,768.675Z" style="fill:#dbf1fd;fill-rule:nonzero;"/><path d="M1383.35,1899.94c-98.208,-0.004 -196.45,-10.542 -292.383,-31.604c-85.575,-18.792 -177.992,-42.946 -255.887,-84.217c-148.263,-78.558 -263.021,-216.283 -349.2,-355.883c-35.317,-57.208 -65.105,-117.779 -89.138,-180.558l0,-768.675c44.025,-85.93 108.196,-170.921 199.613,-208.95c74.766,-31.105 156.07,-47.18 237.266,-47.18c98.359,0 196.546,23.605 282.642,72.688c71.292,40.646 126.808,100.233 201.442,137.079c25.708,12.692 52.15,23.779 79.125,33.417c-57.938,20.704 -118.325,34.721 -179.117,43.546c-93.113,13.516 -187.617,6.379 -280.079,22.895c-187.905,33.567 -383.675,138.742 -424.909,339.855c-11.979,58.416 -16.937,116.554 -15.7,173.937c4.946,229.588 109.038,447.171 259.534,622.575c84.5,98.483 215.116,164.942 340.962,194.746c92.767,21.967 187.875,33.95 283.179,36.008c5.38,0.117 10.746,0.2 16.13,0.254c-4.496,0.042 -8.988,0.067 -13.48,0.067Z" style="fill:#dcf1fc;fill-rule:nonzero;"/><path d="M1410.3,1899.94c-4.492,0 -8.984,-0.025 -13.475,-0.067c5.379,-0.054 10.745,-0.137 16.129,-0.254c95.3,-2.058 190.408,-14.041 283.175,-36.008c125.846,-29.804 256.462,-96.263 340.962,-194.746c150.496,-175.404 254.588,-392.987 259.533,-622.575c1.238,-57.383 -3.72,-115.521 -15.7,-173.937c-41.233,-201.113 -237.004,-306.288 -424.908,-339.855c-92.462,-16.516 -186.966,-9.379 -280.079,-22.895c-60.792,-8.825 -121.179,-22.842 -179.112,-43.546c26.974,-9.638 53.412,-20.725 79.12,-33.417c74.634,-36.846 130.15,-96.433 201.442,-137.079c86.096,-49.083 184.287,-72.688 282.642,-72.688c81.196,0 162.5,16.075 237.266,47.18c92.771,38.591 157.484,125.55 201.554,212.77c101.68,201.238 91.926,413.063 40.871,626.471c-26.879,112.354 -71.241,220.604 -131.95,318.942c-86.179,139.6 -200.937,277.325 -349.2,355.883c-77.896,41.271 -170.312,65.425 -255.887,84.217c-95.929,21.062 -194.171,31.604 -292.383,31.604Z" style="fill:#dcf1fc;fill-rule:nonzero;"/><path d="M1396.83,1899.87c-5.384,-0.054 -10.75,-0.137 -16.13,-0.254c-95.304,-2.058 -190.412,-14.041 -283.179,-36.008c-125.846,-29.804 -256.462,-96.263 -340.962,-194.746c-150.496,-175.404 -254.588,-392.987 -259.534,-622.575c-1.237,-57.383 3.721,-115.521 15.7,-173.937c41.234,-201.113 237.004,-306.288 424.909,-339.855c92.462,-16.516 186.966,-9.379 280.079,-22.895c60.792,-8.825 121.179,-22.842 179.117,-43.546c57.933,20.704 118.32,34.721 179.112,43.546c93.113,13.516 187.617,6.379 280.079,22.895c187.904,33.567 383.675,138.742 424.908,339.855c11.98,58.416 16.938,116.554 15.7,173.937c-4.945,229.588 -109.037,447.171 -259.533,622.575c-84.5,98.483 -215.116,164.942 -340.962,194.746c-92.767,21.967 -187.875,33.95 -283.175,36.008c-5.384,0.117 -10.75,0.2 -16.129,0.254Z" style="fill:#c0e7fa;fill-rule:nonzero;"/><path d="M509.118,1522.07c0.4,-0.062 0.8,-0.129 1.2,-0.195c-0.729,0.27 -1.458,0.537 -2.196,0.779l0.996,-0.584Zm-351.45,-15.441c7.763,0.212 16.434,-2.204 24.663,-5.55c6.787,-2.763 13.275,-6.159 18.7,-9.238c11.025,-6.262 23.7,-14.108 31.562,-24.575c25.163,15.246 51.996,27.729 79.829,37.304c-5.104,-0.883 -10.137,-2.158 -15.341,-2.537c-8.917,-0.65 -17.942,-0.538 -26.859,-0.004c-16.866,1.012 -34.391,4.283 -47.662,14.737c-7.925,6.242 -14.196,17.063 -9.892,26.188c9.209,19.537 42.479,11.341 56.517,3.908c18.979,-10.054 40.146,-19.717 50.083,-39.975c28.875,9.383 58.759,15.596 88.942,18.467c-3.621,0.566 -7.242,1.129 -10.788,2.141c-8.595,2.459 -17.033,5.671 -25.22,9.242c-15.484,6.758 -30.817,15.858 -39.675,30.246c-5.288,8.587 -7.45,20.904 -0.271,27.987c15.371,15.175 43.787,-3.97 54.408,-15.783c13.95,-15.525 29.988,-31.404 33.046,-52.883c28.15,1.871 56.471,0.791 84.383,-3.409c0.992,0.038 1.979,0.088 2.975,0.092c-5.204,1.638 -10.562,2.779 -15.633,4.888c-8.254,3.437 -16.263,7.6 -23.983,12.095c-14.6,8.5 -28.78,19.313 -35.917,34.625c-4.263,9.142 -4.988,21.621 2.962,27.834c17.021,13.296 43.038,-9.004 52.221,-21.967c12.571,-17.746 27.346,-36.133 26.713,-59.096c14.696,-2.591 29.258,-6.021 43.604,-10.396c5.096,-1.554 1.854,-9.15 -3.179,-7.612c-14.017,4.275 -28.267,7.617 -42.646,10.133c-6.579,-12.258 -14.304,-23.908 -23.05,-34.729c-10.617,-13.142 -23.454,-25.517 -39.675,-30.25c-9.683,-2.825 -22.129,-1.65 -27.063,7.15c-2.695,4.813 -2.395,10.879 -0.366,16.008c2.029,5.134 5.608,9.488 9.346,13.55c13.108,14.238 29.558,26.067 47.645,32.517c-18.358,1.525 -36.825,1.713 -55.237,0.604c-5.25,-13.616 -11.821,-26.725 -19.621,-39.058c-9.029,-14.283 -20.35,-28.054 -35.912,-34.629c-9.292,-3.925 -21.796,-4.196 -27.709,3.975c-3.237,4.471 -3.637,10.529 -2.212,15.862c1.425,5.329 4.475,10.071 7.716,14.534c10.171,14 23.225,26.395 38.188,34.941c-20.383,-3.283 -40.542,-8.075 -60.217,-14.404l1.609,-0.1c0.05,-16.033 -1.638,-32.071 -5.017,-47.746c-3.558,-16.512 -9.45,-33.346 -21.796,-44.875c-7.375,-6.883 -19.017,-11.437 -27.383,-5.804c-4.579,3.083 -7.042,8.633 -7.542,14.129c-0.496,5.496 0.738,10.996 2.246,16.309c6.992,24.604 21.062,48.129 41.883,62.537c-24.221,-8.908 -47.6,-20.075 -69.662,-33.396c8.429,-15.104 6.679,-31.996 4.441,-49.329c-2.162,-16.758 -6.62,-34.021 -17.958,-46.546c-6.771,-7.479 -17.992,-12.996 -26.8,-8.079c-4.821,2.688 -7.742,8.008 -8.696,13.446c-0.958,5.433 -0.191,11.021 0.867,16.437c3.117,15.946 9.129,32.059 17.442,46.409c0.625,1.083 5.245,7.575 10.487,14.562c-10.854,-7.496 -21.317,-15.537 -31.337,-24.108c-12.059,-32.517 -31.138,-63.508 -59.996,-82.629c-4.342,-2.875 -9.004,-5.509 -14.146,-6.304c-5.142,-0.792 -10.883,0.575 -14.2,4.583c-2.013,2.429 -2.967,5.571 -3.467,8.687c-2.566,16.025 5.821,32.084 17.242,43.617c17.433,17.608 41.142,26.933 64.921,34.563c13.287,11.687 27.362,22.45 42.087,32.241c-1.666,-0.421 -3.341,-0.796 -5.05,-1.066c-8.829,-1.396 -17.833,-2.042 -26.762,-2.259c-16.892,-0.404 -34.634,1.384 -48.734,10.688c-8.416,5.558 -15.57,15.812 -12.054,25.262c4.467,11.988 20.525,15.521 32,15.838Z" style="fill:#04529c;fill-rule:nonzero;"/><path d="M652.06,1528.83c-90.283,-19.063 -184.938,-16.054 -274.113,7.396c-83.529,21.962 -170.183,59.12 -217.162,135.525c-16.829,27.362 -25.096,63.42 -9.175,91.32c10.817,18.959 30.883,30.842 51.333,38.463c81.359,30.329 173.392,4.404 249.913,-36.633c90.366,-48.463 169.383,-117.938 229.012,-201.363" style="fill:#4171b7;fill-rule:nonzero;"/><path d="M359.752,1653.33c-0.025,4.575 -1.296,17.021 -3.896,34.75c-3.304,22.537 -8.938,53.533 -16.929,87.379c-2.846,12.017 -5.8,23.546 -8.742,34.429c-2.171,0.4 -4.338,0.763 -6.513,1.117c2.984,-11.65 6.067,-24.063 9.13,-36.992c7.958,-33.7 14.258,-64.412 18.666,-86.692c3.304,-16.641 5.654,-28.55 7.009,-33.458c-15.784,6.596 -30.93,13.138 -45.255,19.475c-13.604,6.171 -26.575,11.933 -38.558,17.671c-8.462,3.908 -16.437,7.737 -23.967,11.392c0.421,2.462 -0.395,14.483 -2.962,32.604c-2.758,19.521 -7.821,46.087 -15.55,74.962c-2.05,-0.429 -4.1,-0.866 -6.138,-1.362c7.759,-28.746 13.471,-55.054 17.3,-74.354c3.371,-16.942 5.492,-28.438 6.625,-31.5c-2.95,1.433 -5.845,2.845 -8.65,4.212c-10.204,4.863 -19.287,9.558 -27.337,13.542c-8.063,3.962 -14.95,7.479 -20.583,10.358c-11.288,5.704 -17.638,8.683 -17.846,8.304c-0.213,-0.379 5.737,-4.083 16.683,-10.458c5.458,-3.213 12.192,-7.054 20.113,-11.321c7.908,-4.287 16.866,-9.271 26.966,-14.396c2.942,-1.529 5.996,-3.104 9.104,-4.7c-7.954,-2.158 -32.775,-12.179 -63.429,-20.483c-8.496,-2.35 -16.65,-4.342 -24.208,-6.067c1.108,-1.796 2.254,-3.55 3.404,-5.304c7.088,1.404 14.638,3.138 22.467,5.3c32.775,8.892 58.1,21.679 63.45,25.692c7.029,-3.6 14.437,-7.329 22.3,-11.125c11.921,-5.959 24.85,-11.917 38.429,-18.25c13.05,-5.942 26.812,-12.025 41.125,-18.134c-11.183,-5.3 -39.358,-20.895 -73.454,-37.379c-14.4,-7.012 -28.025,-13.291 -39.809,-18.625c1.863,-1.212 3.738,-2.404 5.625,-3.579c11.217,4.621 23.788,10.175 36.93,16.546c21.941,10.654 41.208,21.496 54.787,29.908c8.488,5.254 14.783,9.517 18.213,12.15c14.883,-6.329 30.37,-12.683 46.329,-18.946c19.291,-7.495 38.154,-14.416 56.304,-20.775c-5.388,-3.283 -13.704,-8.608 -24.313,-15.287c-19.045,-12.013 -45.612,-28.175 -75.758,-44.583c-2.908,-1.575 -5.771,-3.105 -8.633,-4.625c2.833,-0.88 5.671,-1.734 8.504,-2.571c1.05,0.562 2.079,1.096 3.133,1.666c30.342,16.517 56.721,33.388 75.217,46.405c11.158,7.845 19.487,14.187 24.258,18.145c11.342,-3.958 22.396,-7.691 33.079,-11.2c14.28,-4.541 27.825,-8.92 40.621,-12.616c9.988,-3.029 19.467,-5.709 28.367,-8.154c-4.196,-2.98 -11.2,-8.338 -20.463,-15.163c-15.116,-11.162 -36.45,-25.942 -61.183,-40.358c-1.15,-0.667 -2.279,-1.296 -3.421,-1.95c3.642,-0.334 7.284,-0.617 10.929,-0.888c23.117,13.821 42.742,28.259 56.417,39.692c9.667,8.067 16.475,14.496 19.821,18.092c1.733,-0.48 3.492,-0.959 5.179,-1.421c10.9,-3.071 20.867,-5.479 29.588,-7.684c8.716,-2.229 16.27,-3.966 22.462,-5.304c12.371,-2.729 19.254,-4.037 19.358,-3.612c0.1,0.421 -6.587,2.533 -18.754,5.983c-6.091,1.704 -13.546,3.783 -22.158,6.329c-8.621,2.525 -18.479,5.229 -29.279,8.567c-1.904,0.571 -3.879,1.162 -5.85,1.754c0.079,1.733 0.066,4.458 -0.042,8.133c-0.075,3.305 -0.258,7.342 -0.671,12.017c-0.387,4.675 -0.746,10.013 -1.508,15.871c-1.283,11.754 -3.446,25.675 -6.463,41.025c-3.129,15.279 -7.175,31.967 -12.35,49.221c-2.891,2.208 -5.766,4.446 -8.687,6.608c0.883,-2.754 1.771,-5.492 2.625,-8.304c5.142,-17.117 9.325,-33.621 12.742,-48.725c3.295,-15.133 5.891,-28.85 7.725,-40.433c2.812,-17.434 4.375,-29.95 5.395,-35.042c-8.858,2.658 -18.295,5.529 -28.245,8.733c-12.7,3.9 -26.146,8.454 -40.33,13.134c-9.704,3.3 -19.741,6.787 -30.008,10.429c-0.146,5.621 -1.246,17.762 -3.812,34.391c-1.767,11.63 -4.43,25.396 -7.925,40.563c-3.596,15.142 -8.084,31.671 -13.605,48.771c-5.02,15.316 -10.437,29.7 -15.825,42.879c-2.537,1.158 -5.087,2.292 -7.645,3.408l0.42,-1.041c5.65,-14.359 11.521,-30.275 17.067,-47.192c5.467,-16.946 10.083,-33.267 13.958,-48.204c3.771,-14.963 6.863,-28.525 9.175,-39.975c3.2,-15.638 5.284,-27.263 6.588,-33.034c-19.163,6.813 -39.188,14.209 -59.713,22.188c-14.812,5.808 -29.204,11.662 -43.12,17.471Z" style="fill:#77cdd4;fill-rule:nonzero;"/><path d="M767.989,1423.75c-5.662,-83.662 -31.092,-165.929 -73.637,-238.187c-39.313,-66.771 -94.6,-125.992 -164.58,-159.25c-69.983,-33.254 -155.579,-37.85 -224.191,-1.863c-18.838,9.88 -36.296,22.717 -50.042,38.946c-28.896,34.125 -39.225,80.742 -38.708,125.454c1.266,108.771 63.129,212.33 151.825,275.3c88.7,62.967 201.308,87.455 309.812,79.759" style="fill:#3fc1c4;fill-rule:nonzero;"/><path d="M393.343,1456.98c64.617,-18.938 122.304,-38.717 163.821,-53.742c18.3,-6.667 34.583,-12.596 49.154,-17.9c3.859,-1.4 7.1,-2.537 9.792,-3.446c-13.563,-12.433 -28.538,-25.95 -44.688,-40.296c-19.275,-16.995 -40.233,-35.112 -62.404,-53.741c-2.483,0.887 -5.808,1.979 -10.008,3.287c-4.9,1.563 -10.933,3.346 -18.008,5.163c-7.063,1.846 -15.088,4.062 -24.071,6.029c-17.892,4.258 -39.4,8.492 -63.425,12.375c-24.046,3.717 -50.625,6.987 -78.638,9.133c-22.362,1.617 -43.862,2.363 -64.029,2.55c-1.333,-2.696 -2.617,-5.408 -3.875,-8.137c21.088,-0.438 43.671,-1.342 67.263,-3.042c27.787,-2.133 54.17,-5.133 78.104,-8.392c23.912,-3.425 45.383,-7.008 63.337,-10.475c24.246,-4.62 42.146,-8.508 51.354,-10.154c-5.829,-4.891 -11.683,-9.791 -17.67,-14.737c-29.588,-24.317 -58.242,-46.909 -84.546,-67.15c-11.179,-8.529 -21.892,-16.621 -32.117,-24.267c-5.908,1.75 -18.25,4.442 -35.208,7.346c-24.413,4.192 -58.409,8.592 -96.15,11.133c-8.25,0.55 -16.296,0.967 -24.154,1.309c-0.138,-2.834 -0.217,-5.671 -0.271,-8.513c7.758,-0.421 15.7,-0.892 23.846,-1.433c37.504,-2.525 71.37,-5.934 95.891,-8.559c15.129,-1.616 26.7,-2.841 33.409,-3.254c-12.909,-9.637 -24.98,-18.516 -35.959,-26.462c-18.341,-13.221 -34.362,-24.775 -48.262,-34.8c-11.4,-8.225 -17.554,-13.017 -17.229,-13.517c0.329,-0.496 7.112,3.342 19.1,10.721c12.02,7.333 29.091,18.446 49.912,32.592c11.425,7.737 23.963,16.483 37.329,26.054c-2.846,-19.117 -7.733,-64.167 -19.133,-115.704c-3.704,-17.146 -7.763,-33.342 -11.729,-48.009c2.546,-0.75 5.116,-1.396 7.687,-2.058c4.396,14.675 8.713,30.95 12.496,48.217c7.55,34.654 11.517,66.57 13.054,89.72c0.896,13.338 1.104,23.734 0.913,30.188c10.033,7.208 20.504,14.854 31.387,22.937c26.65,19.95 55.55,42.425 85.238,66.825c5.012,4.142 9.875,8.246 14.766,12.355c-0.029,-8.796 0.33,-23.563 0.55,-42.75c0.388,-31.971 -0.054,-76.121 -3.437,-124.738c-2.533,-35.746 -6.3,-68.833 -10.046,-96.433c2.596,0.854 5.2,1.687 7.771,2.612c4.421,26.879 8.475,58.809 10.912,93.213c3.409,48.979 2.88,93.487 0.917,125.558c-1.254,20.7 -2.908,36.192 -4.217,44.588c23.105,19.479 44.867,38.545 64.675,56.479c16.292,14.866 31.296,28.921 44.775,41.896c0.45,-8.346 1.838,-23.675 3.263,-44.105c1.137,-15.758 2.05,-34.541 2.621,-55.395c0.429,-20.863 0.433,-43.8 -0.4,-67.859c-0.938,-24.058 -2.625,-46.933 -4.588,-67.708c-2.096,-20.758 -4.387,-39.425 -6.679,-55.058c-0.087,-0.613 -0.175,-1.196 -0.262,-1.8c2.516,2.366 5.025,4.737 7.483,7.166c2.646,14.267 5.167,30.659 7.392,48.834c2.412,20.9 4.362,43.97 5.304,68.245c0.841,24.28 0.591,47.43 -0.279,68.45c-1.013,21.017 -2.571,39.905 -4.496,55.692c-2.617,21.879 -5.475,37.813 -7.334,45.492l0.13,0.125c0.6,-0.113 0.991,-0.138 1.037,-0.021l-0.504,0.537c5.875,5.675 11.475,11.159 16.704,16.363c17.867,17.733 32.038,32.362 41.533,42.758c9.534,10.359 14.6,16.279 14.171,16.696c-0.425,0.421 -6.304,-4.704 -16.558,-14.321c-12.496,-11.725 -26.9,-25.246 -43.388,-40.716c-5.858,-5.484 -12.145,-11.305 -18.741,-17.359c-2.696,1.329 -6.159,2.967 -10.342,4.888c-11.229,5.221 -27.708,12.25 -48.25,20.504c-41.067,16.533 -98.687,37.317 -163.567,56.329c-5.991,1.754 -11.925,3.442 -17.82,5.1c-3.105,-2.071 -6.246,-4.079 -9.296,-6.242l-0.088,-0.066c8.154,-2.292 16.417,-4.659 24.775,-7.1Z" style="fill:#00b8b3;fill-rule:nonzero;"/><path d="M557.897,1443.64c0.525,0.292 1.05,0.579 1.575,0.867c-1.095,-0.346 -2.183,-0.704 -3.266,-1.096l1.691,0.229Zm-394.645,-338.108c8.829,7.316 21.112,12.408 33.729,16.012c10.412,2.971 21.054,4.929 30.162,6.288c18.529,2.766 40.417,5.187 59.096,0.179c15.375,40.65 35.213,79.608 58.854,116.1c-5.129,-5.675 -9.829,-11.746 -15.533,-16.925c-9.775,-8.879 -20.371,-16.975 -31.229,-24.475c-20.538,-14.183 -43.896,-26.35 -68.854,-26.279c-14.905,0.041 -32.05,6.912 -35.359,21.441c-7.087,31.109 39.067,51.892 62.167,56.03c31.229,5.595 64.646,13.645 94.658,-0.859c25.034,37.213 54.129,71.663 86.617,102.492c-4.729,-2.638 -9.45,-5.283 -14.5,-7.333c-12.238,-4.971 -24.971,-8.921 -37.746,-12.225c-24.167,-6.25 -50.287,-9.63 -73.696,-0.971c-13.975,5.171 -27.708,17.521 -25.812,32.3c4.054,31.65 54.541,35.271 77.654,31.208c30.367,-5.342 63.479,-9.204 86.604,-31.396c31.033,27.817 64.95,52.363 101.242,72.904c1.116,0.946 2.216,1.905 3.371,2.813c-7.542,-2.833 -14.813,-6.388 -22.634,-8.55c-12.725,-3.525 -25.833,-5.979 -38.904,-7.783c-24.725,-3.417 -51.062,-3.759 -73.312,7.545c-13.288,6.746 -25.5,20.605 -21.913,35.067c7.683,30.967 58.25,28.733 80.738,22.029c30.791,-9.183 64.725,-17.112 84.904,-44.396c19.45,10.375 39.512,19.655 60.179,27.634c7.342,2.833 10.487,-8.95 3.237,-11.75c-20.195,-7.8 -39.808,-16.888 -58.825,-27.063c3.517,-20.254 5.138,-40.833 4.83,-61.387c-0.375,-24.954 -4.034,-51.042 -18.584,-71.321c-8.683,-12.104 -24.237,-22.075 -37.983,-16.333c-7.525,3.137 -12.7,10.466 -15.013,18.283c-2.312,7.817 -2.12,16.142 -1.47,24.271c2.27,28.491 10.625,57.237 25.787,81.212c-22.746,-14.946 -44.387,-31.554 -64.792,-49.612c6.3,-20.617 10.6,-41.846 12.767,-63.296c2.513,-24.833 1.888,-51.167 -10.221,-72.988c-7.229,-13.029 -21.525,-24.729 -35.846,-20.616c-7.833,2.254 -13.82,8.929 -17.025,16.429c-3.2,7.5 -3.966,15.792 -4.262,23.937c-0.925,25.546 2.962,51.85 12.579,75.417c-20.717,-22.383 -39.792,-46.321 -56.908,-71.604l1.962,1.35c14.663,-18.6 27.313,-38.788 37.659,-60.096c10.908,-22.45 19.391,-47.387 15.533,-72.046c-2.304,-14.721 -11.696,-30.625 -26.558,-31.691c-8.134,-0.584 -16.055,3.629 -21.642,9.562c-5.583,5.938 -9.163,13.458 -12.242,21.008c-14.283,34.984 -19.35,75.155 -8.262,110.884c-20.054,-32.425 -37.071,-66.713 -50.592,-102.3c23.563,-9.888 36.913,-31.121 50.1,-53.321c12.75,-21.454 23.292,-45.592 21.517,-70.488c-1.059,-14.862 -9.084,-31.5 -23.804,-33.812c-8.055,-1.263 -16.3,2.267 -22.363,7.717c-6.067,5.45 -10.262,12.641 -13.967,19.904c-10.904,21.387 -18.583,45.6 -21.991,69.866c-0.259,1.825 -0.8,13.584 -1.071,26.484c-5.792,-18.604 -10.633,-37.488 -14.483,-56.579c15.6,-48.805 21.645,-102.225 5.5,-150.755c-2.43,-7.291 -5.45,-14.604 -10.709,-20.212c-5.258,-5.608 -13.179,-9.242 -20.691,-7.608c-4.555,0.991 -8.521,3.779 -11.942,6.95c-17.583,16.295 -22.454,42.612 -19.683,66.425c4.237,36.358 23.312,68.804 44.016,99.333c4.809,25.7 11.371,51.037 19.579,75.837c-1.558,-2.004 -3.166,-3.97 -4.908,-5.837c-8.996,-9.663 -18.875,-18.621 -29.067,-27.004c-19.275,-15.859 -41.533,-29.942 -66.408,-31.967c-14.85,-1.208 -32.512,4.2 -37.029,18.4c-5.729,18.013 9.733,36.746 22.792,47.567Z" style="fill:#aadee8;fill-rule:nonzero;"/><path d="M423.306,895.895c25.183,0 25.183,-39.054 -0,-39.054c-25.188,0 -25.188,39.054 -0,39.054Z" style="fill:#abc1e4;fill-rule:nonzero;"/><path d="M143.081,988.945c19.587,0 19.587,-30.379 -0,-30.379c-19.592,0 -19.592,30.379 -0,30.379Z" style="fill:#abc1e4;fill-rule:nonzero;"/><path d="M326.577,754.762c19.587,0 19.587,-30.375 -0,-30.375c-19.588,0 -19.588,30.375 -0,30.375Z" style="fill:#abc1e4;fill-rule:nonzero;"/><path d="M13.06,1053.83c25.187,-0 25.187,-39.059 -0,-39.059c-25.183,0 -25.183,39.059 -0,39.059Z" style="fill:#abc1e4;fill-rule:nonzero;"/><path d="M105.735,1281.64c19.587,0 19.587,-30.379 -0,-30.379c-19.588,-0 -19.588,30.379 -0,30.379Z" style="fill:#abc1e4;fill-rule:nonzero;"/><path d="M88.36,1592.96c25.183,0 25.183,-39.054 -0,-39.054c-25.188,-0 -25.188,39.054 -0,39.054Z" style="fill:#abc1e4;fill-rule:nonzero;"/><path d="M629.827,973.158c-18.546,-49.4 -24.013,-103.433 -16.946,-155.663c6.241,-46.141 15.366,-107.787 58.358,-133.537c12.629,-7.563 27.033,-10.446 39.788,-17.179c10.5,-5.546 15.966,-13.979 24.929,-22.167c59.971,-54.758 147.112,-67.771 224.933,-54.717c40.154,6.734 79.392,20.396 114.583,40.95c38.83,22.68 59.125,48.013 78.53,88.063c10.329,21.325 18.275,43.842 23.65,66.921c4.729,20.321 0.791,37.8 1.812,58.191c2.742,54.909 0.6,109.242 -9.65,163.371" style="fill:#3558a8;fill-rule:nonzero;"/><path d="M662.064,921.433c-22.25,-6.113 -47.246,3.046 -62.346,20.496c-15.1,17.446 -20.708,41.979 -17.437,64.825c3.271,22.841 14.8,43.983 30.15,61.212c11.691,13.117 25.937,24.371 42.487,30.271c16.55,5.904 35.579,6.033 51.234,-1.946" style="fill:#f286b6;fill-rule:nonzero;"/><path d="M680.077,1086c0.62,-0.038 0.862,-8.834 -1.367,-22.838c-2.229,-13.958 -7.2,-33.133 -16.7,-52.687c-4.738,-9.775 -10.379,-18.663 -16.7,-25.809c-6.304,-7.162 -13.258,-12.466 -19.613,-15.879c-12.854,-6.929 -22.291,-6.437 -22.2,-5.925c-0.191,0.888 8.729,1.742 20.359,9.075c5.783,3.625 12.071,8.883 17.846,15.829c5.795,6.934 11.066,15.479 15.666,24.967c9.246,19.037 14.663,37.579 17.763,51.129c3.096,13.579 4.146,22.208 4.946,22.138Z" style="fill:#bd568d;fill-rule:nonzero;"/><path d="M669.989,1077.21c0.45,-0.671 -3.725,-3.721 -9,-9.85c-5.271,-6.054 -11.412,-15.638 -14.15,-27.5c-2.725,-11.871 -1.387,-23.171 0.704,-30.921c2.063,-7.817 4.488,-12.387 3.788,-12.796c-0.5,-0.341 -4.134,3.65 -7.259,11.675c-3.137,7.913 -5.254,20.188 -2.262,33.2c3,13.004 10.267,23.121 16.546,28.867c6.325,5.858 11.333,7.854 11.633,7.325Z" style="fill:#bd568d;fill-rule:nonzero;"/><path d="M1139.27,921.433c22.254,-6.113 47.246,3.046 62.346,20.496c15.1,17.446 20.712,41.979 17.442,64.825c-3.271,22.841 -14.8,43.983 -30.155,61.212c-11.691,13.117 -25.933,24.371 -42.487,30.271c-16.55,5.904 -35.575,6.033 -51.229,-1.946" style="fill:#d46ba9;fill-rule:nonzero;"/><path d="M1121.26,1086c0.8,0.07 1.85,-8.559 4.95,-22.138c3.1,-13.55 8.512,-32.092 17.758,-51.129c4.6,-9.488 9.871,-18.033 15.667,-24.967c5.779,-6.946 12.062,-12.204 17.846,-15.829c11.633,-7.333 20.549,-8.187 20.362,-9.075c0.088,-0.512 -9.35,-1.004 -22.204,5.925c-6.35,3.413 -13.304,8.717 -19.613,15.879c-6.32,7.146 -11.958,16.034 -16.7,25.809c-9.495,19.554 -14.47,38.729 -16.7,52.687c-2.225,14.004 -1.987,22.8 -1.366,22.838Z" style="fill:#bd568d;fill-rule:nonzero;"/><path d="M1131.34,1077.21c0.3,0.529 5.309,-1.467 11.634,-7.325c6.279,-5.746 13.55,-15.863 16.545,-28.867c2.992,-13.012 0.879,-25.287 -2.258,-33.2c-3.129,-8.025 -6.762,-12.016 -7.258,-11.675c-0.7,0.409 1.72,4.979 3.783,12.796c2.096,7.75 3.433,19.05 0.704,30.921c-2.737,11.862 -8.879,21.446 -14.15,27.5c-5.271,6.129 -9.45,9.179 -9,9.85Z" style="fill:#bd568d;fill-rule:nonzero;"/><path d="M1135.85,868.175c-4.37,-30.513 -11.579,-61.088 -26.616,-88.175c-38.925,-70.096 -127.475,-105.471 -208.675,-96.463c-81.2,-9.008 -169.754,26.367 -208.671,96.463c-15.042,27.087 -22.25,57.662 -26.617,88.175c-14.2,99.191 -4.516,208.591 57.805,293.216c34.116,46.321 93.029,70.738 150.591,74.884c11.979,0.866 14.909,0.92 26.892,0.533c11.983,0.387 14.912,0.333 26.892,-0.533c57.566,-4.146 116.479,-28.563 150.591,-74.884c62.325,-84.625 72.009,-194.025 57.808,-293.216Z" style="fill:#f393bd;fill-rule:nonzero;"/><path d="M885.814,1050.74c0.45,-0.4 -1.025,-2.504 -2.787,-6.529c-1.742,-4.021 -3.534,-10.167 -3.488,-17.996c-0.104,-7.842 1.788,-16.979 5.208,-27.087c3.242,-10.113 7.996,-21.355 9.975,-34.342c1.988,-12.871 1.242,-25.388 -1.058,-36.342c-2.35,-10.962 -6.25,-20.354 -10.333,-27.7c-8.317,-14.754 -16.738,-21.271 -17.3,-20.646c-0.975,0.834 5.787,8.534 12.408,23.105c3.263,7.275 6.396,16.283 8.221,26.6c1.775,10.312 2.246,21.912 0.412,33.795c-1.77,11.825 -6.133,22.834 -9.141,33.425c-3.159,10.517 -4.729,20.875 -3.863,29.455c0.684,8.608 3.571,15.283 6.325,19.195c2.796,3.95 5.092,5.384 5.421,5.067Z" style="fill:#bd568d;fill-rule:nonzero;"/><path d="M795.556,989.462c2.85,0 5.162,-12.433 5.162,-27.767c0,-15.333 -2.312,-27.766 -5.162,-27.766c-2.85,-0 -5.163,12.433 -5.163,27.766c0,15.334 2.313,27.767 5.163,27.767Z" style="fill:#cd6396;fill-rule:nonzero;"/><path d="M988.364,989.462c2.85,0 5.163,-12.433 5.163,-27.767c-0,-15.333 -2.313,-27.766 -5.163,-27.766c-2.85,-0 -5.158,12.433 -5.158,27.766c-0,15.334 2.308,27.767 5.158,27.767Z" style="fill:#cd6396;fill-rule:nonzero;"/><path d="M831.51,875.333c0.162,-2.792 -4.725,-5.838 -13.358,-7.392c-8.534,-1.529 -21.175,-1.391 -34.313,3.759c-13.212,5.162 -22.983,14.595 -27.342,22.845c-4.495,8.313 -4.041,14.546 -1.541,15.625c2.666,1.225 6.771,-2.1 12.696,-6.204c5.883,-4.179 13.97,-9.196 23.775,-13.071c9.887,-3.895 19.783,-6.212 27.316,-8.37c7.517,-2.15 12.613,-4.3 12.767,-7.192Z" style="fill:#bd568d;fill-rule:nonzero;"/><path d="M955.772,875.333c0.155,2.892 5.255,5.042 12.771,7.192c7.529,2.158 17.429,4.475 27.313,8.37c9.808,3.875 17.891,8.892 23.779,13.071c5.925,4.104 10.025,7.429 12.696,6.204c2.496,-1.079 2.954,-7.312 -1.546,-15.625c-4.354,-8.25 -14.129,-17.683 -27.342,-22.845c-13.133,-5.15 -25.779,-5.288 -34.312,-3.759c-8.629,1.554 -13.517,4.6 -13.359,7.392Z" style="fill:#bd568d;fill-rule:nonzero;"/><path d="M1322.88,1771.42c-3.229,-48.105 -10.9,-95.909 -22.817,-142.63c-10.433,-40.904 -21.704,-94.2 -46.183,-129.25c-46.938,-67.204 -112.967,-104.47 -188.663,-131.687c-16.65,-5.983 -33.737,-11.95 -47.52,-23.046c-28.03,-22.567 -36.613,-92.346 -42.034,-127.917c-2.8,-18.341 -5.229,-36.737 -7.291,-55.175l-36.225,-22.829c2.795,-15.233 3.987,-30.421 0.725,-45.521l-36.475,22.988l-36.471,-22.988c-3.263,15.1 -2.071,30.288 0.721,45.521l-36.221,22.829c-2.063,18.438 -4.492,36.834 -7.292,55.175c-5.421,35.571 -14.004,105.35 -42.033,127.917c-13.784,11.096 -30.875,17.063 -47.521,23.046c-75.696,27.217 -141.729,64.483 -188.663,131.687c-24.479,35.05 -35.75,88.346 -46.183,129.25c-11.917,46.721 -19.587,94.525 -22.817,142.63c46.38,33.604 102.117,51.562 157.592,65.8c28.992,7.437 58.267,16.441 87.729,22.295c-0.383,0.43 -0.733,0.888 -1.121,1.317c8.125,0.9 16.263,1.767 24.409,2.604c52.237,7.917 105,10.642 157.871,9.988c52.875,0.654 105.637,-2.071 157.875,-9.988c8.145,-0.837 16.283,-1.704 24.404,-2.604c-0.384,-0.429 -0.738,-0.887 -1.121,-1.317c29.466,-5.854 58.741,-14.858 87.733,-22.295c55.475,-14.238 111.213,-32.196 157.592,-65.8Z" style="fill:#f283b4;fill-rule:nonzero;"/><path d="M896.402,1873.43c52.875,0.654 105.637,-2.071 157.875,-9.988c8.145,-0.837 16.279,-1.704 24.404,-2.604c-0.384,-0.429 -0.738,-0.887 -1.121,-1.317c29.466,-5.854 58.741,-14.858 87.733,-22.295c55.475,-14.238 111.213,-32.196 157.592,-65.8c-3.229,-48.105 -10.9,-95.909 -22.817,-142.63c-10.433,-40.904 -21.704,-94.2 -46.183,-129.25c-46.938,-67.204 -112.967,-104.47 -188.663,-131.687c-9.675,-3.479 -19.483,-6.983 -28.725,-11.458c-32.75,27.225 -72.908,45.616 -115.158,51.204c-60.508,7.996 -123.708,-10.404 -171.417,-48.288c-7.312,3.146 -14.862,5.854 -22.341,8.542c-75.692,27.217 -141.725,64.483 -188.659,131.687c-24.479,35.05 -35.75,88.346 -46.183,129.25c-11.917,46.721 -19.587,94.525 -22.817,142.63c46.38,33.604 102.117,51.562 157.592,65.8c28.992,7.437 58.267,16.441 87.729,22.295c-0.383,0.43 -0.733,0.888 -1.121,1.317c8.125,0.9 16.263,1.767 24.409,2.604c52.237,7.917 105,10.642 157.871,9.988Z" style="fill:#fff;fill-rule:nonzero;"/><path d="M897.918,1450.61c67.121,-3.187 130.221,-33.858 182.109,-77.237c-4.892,-1.884 -9.825,-3.725 -14.805,-5.517c-9.675,-3.479 -19.483,-6.983 -28.725,-11.458c-32.75,27.225 -72.908,45.616 -115.158,51.204c-60.508,7.996 -123.708,-10.404 -171.417,-48.288c-7.312,3.146 -14.862,5.854 -22.341,8.542c-2.938,1.058 -5.838,2.162 -8.75,3.25c40.241,53.45 111.216,82.725 179.087,79.504Z" style="fill:#e1e8f3;fill-rule:nonzero;"/><path d="M762.956,1368.84c-4.442,-3.037 -8.817,-6.175 -13.034,-9.521c-7.312,3.146 -14.862,5.854 -22.341,8.542c-75.692,27.217 -141.725,64.483 -188.659,131.687c-24.479,35.05 -35.75,88.346 -46.183,129.25c-11.917,46.721 -19.587,94.525 -22.817,142.63c46.38,33.604 102.117,51.562 157.592,65.8c28.992,7.437 58.267,16.441 87.729,22.295c-0.383,0.43 -0.733,0.888 -1.121,1.317c8.125,0.9 16.263,1.767 24.409,2.604c29.85,4.525 59.879,7.304 89.996,8.775c-27.65,-166.733 -44.309,-335.454 -65.571,-503.379Z" style="fill:#24376e;fill-rule:nonzero;"/><path d="M771.897,1867.71c18.83,2.067 37.709,3.583 56.63,4.504c-27.65,-166.733 -44.309,-335.454 -65.571,-503.379c-4.442,-3.037 -8.817,-6.175 -13.034,-9.521c-7.312,3.146 -14.862,5.854 -22.341,8.542c-0.917,0.333 -1.817,0.683 -2.738,1.017c-27.062,68.745 -46.75,140.391 -58.579,213.316c-4.725,29.125 -8.042,59.904 2.725,87.375c10.767,27.471 40.071,49.859 68.767,43c-4.034,53.654 8.733,107.779 34.141,155.146Z" style="fill:#4171b7;fill-rule:nonzero;"/><path d="M1022.92,1366.68c4.521,-3.054 8.971,-6.204 13.259,-9.567c7.437,3.163 15.12,5.883 22.725,8.583c76.991,27.334 144.15,64.755 191.891,132.25c24.9,35.205 36.363,88.725 46.975,129.805c12.117,46.92 19.921,94.929 23.209,143.245c-47.176,33.742 -103.871,51.78 -160.296,66.075c-29.488,7.471 -59.263,16.517 -89.238,22.392c0.396,0.438 0.754,0.892 1.146,1.325c-8.262,0.904 -16.542,1.775 -24.821,2.617c-30.366,4.546 -60.908,7.337 -91.541,8.812c28.125,-167.45 45.066,-336.896 66.691,-505.537Z" style="fill:#24376e;fill-rule:nonzero;"/><path d="M1013.83,1867.69c-19.15,2.075 -38.355,3.6 -57.6,4.525c28.125,-167.45 45.066,-336.896 66.691,-505.537c4.521,-3.054 8.971,-6.204 13.259,-9.567c7.437,3.163 15.12,5.883 22.725,8.583c0.933,0.33 1.85,0.684 2.783,1.021c27.525,69.038 47.554,140.992 59.583,214.229c4.809,29.25 8.179,60.163 -2.771,87.75c-10.954,27.592 -40.758,50.071 -69.945,43.184c4.104,53.883 -8.88,108.241 -34.725,155.812Z" style="fill:#4171b7;fill-rule:nonzero;"/><path d="M806.343,1085.69c0.558,-1.1 -10.45,-7.195 -27.004,-18.658c-4.129,-2.883 -8.642,-6.037 -13.283,-9.704c-4.775,-3.483 -9.571,-7.596 -14.7,-11.8c-10.046,-8.675 -20.671,-18.688 -31.03,-29.958c-10.262,-11.359 -19.249,-22.863 -26.954,-33.667c-3.716,-5.5 -7.362,-10.654 -10.391,-15.729c-3.221,-4.963 -5.942,-9.75 -8.429,-14.125c-9.884,-17.546 -14.93,-29.071 -16.084,-28.617c-0.841,0.304 2.417,12.608 11.229,31.15c2.221,4.621 4.721,9.658 7.767,14.871c2.85,5.325 6.375,10.729 10.013,16.467c7.558,11.283 16.604,23.22 27.129,34.862c10.621,11.558 21.666,21.671 32.204,30.242c5.375,4.154 10.429,8.162 15.467,11.496c4.908,3.512 9.695,6.466 14.091,9.108c17.642,10.492 29.596,14.875 29.975,14.062Z" style="fill:#e1e8f3;fill-rule:nonzero;"/><path d="M773.227,1127.25c-0.255,-2.212 -17.638,-1.741 -38.746,-3.791c-21.125,-1.913 -38.117,-5.609 -38.775,-3.484c-0.684,1.934 15.975,9.175 38.05,11.192c22.066,2.125 39.783,-1.892 39.471,-3.917Z" style="fill:#e1e8f3;fill-rule:nonzero;"/><path d="M994.051,1085.69c0.38,0.813 12.334,-3.57 29.975,-14.062c4.396,-2.642 9.18,-5.596 14.088,-9.108c5.042,-3.334 10.096,-7.342 15.471,-11.496c10.537,-8.571 21.583,-18.684 32.204,-30.242c10.525,-11.642 19.571,-23.579 27.129,-34.862c3.638,-5.738 7.159,-11.142 10.013,-16.467c3.046,-5.213 5.541,-10.25 7.762,-14.871c8.817,-18.542 12.071,-30.846 11.229,-31.15c-1.154,-0.454 -6.2,11.071 -16.079,28.617c-2.487,4.375 -5.212,9.162 -8.429,14.125c-3.029,5.075 -6.679,10.229 -10.392,15.729c-7.704,10.804 -16.691,22.308 -26.958,33.667c-10.362,11.27 -20.979,21.283 -31.025,29.958c-5.129,4.204 -9.925,8.317 -14.7,11.8c-4.642,3.667 -9.154,6.821 -13.283,9.704c-16.554,11.463 -27.563,17.558 -27.005,18.658Z" style="fill:#e1e8f3;fill-rule:nonzero;"/><path d="M1027.17,1127.25c-0.312,2.025 17.404,6.042 39.471,3.917c22.071,-2.017 38.733,-9.258 38.05,-11.192c-0.663,-2.125 -17.654,1.571 -38.779,3.484c-21.104,2.05 -38.488,1.579 -38.742,3.791Z" style="fill:#e1e8f3;fill-rule:nonzero;"/><path d="M1023.09,1077.65c-25.654,-18.055 -53.45,-54.109 -83.504,-64.575c-16.1,-5.605 -33.279,-9.005 -50.413,-8.942c-0.616,-0.021 -1.233,0.004 -1.854,-0.008c-0.617,0.012 -1.237,-0.013 -1.854,0.008c-17.129,-0.063 -34.313,3.337 -50.413,8.942c-30.054,10.466 -57.845,46.52 -83.504,64.575c-72.754,51.187 -22.883,118.479 39.517,153.183c59.812,33.267 132.704,33.262 192.508,0.004c62.4,-34.708 112.271,-102 39.517,-153.187Z" style="fill:#e1e8f3;fill-rule:nonzero;"/><path d="M947.41,1042.84c0.517,-0.775 -4.833,-5.687 -15.263,-10.925c-5.191,-2.654 -11.704,-5.137 -19.15,-7.212c-7.475,-1.946 -15.895,-3.4 -24.82,-3.85c-8.934,-0.35 -17.45,0.341 -25.067,1.608c-7.6,1.4 -14.313,3.287 -19.717,5.462c-10.858,4.28 -16.629,8.696 -16.187,9.513c0.541,1.071 7.091,-1.533 17.858,-4.3c5.371,-1.429 11.863,-2.671 19.096,-3.621c7.254,-0.817 15.262,-1.254 23.667,-0.929c8.404,0.429 16.341,1.587 23.491,3.05c7.121,1.592 13.471,3.412 18.696,5.321c10.471,3.721 16.763,6.9 17.396,5.883Z" style="fill:#fff;fill-rule:nonzero;"/><path d="M884.452,1223.14c2.137,0 3.866,-37.062 3.866,-82.783c0,-45.717 -1.729,-82.779 -3.866,-82.779c-2.142,-0 -3.871,37.062 -3.871,82.779c-0,45.721 1.729,82.783 3.871,82.783Z" style="fill:#fff;fill-rule:nonzero;"/><path d="M850.377,1129.23c-0,15.779 -12.792,28.571 -28.571,28.571c-15.779,-0 -28.575,-12.792 -28.575,-28.571c-0,-15.779 12.796,-28.571 28.575,-28.571c15.779,-0 28.571,12.792 28.571,28.571Z" style="fill:#fff;fill-rule:nonzero;"/><path d="M839.156,1129.23c-0,9.583 -7.767,17.35 -17.35,17.35c-9.584,-0 -17.35,-7.767 -17.35,-17.35c-0,-9.584 7.766,-17.35 17.35,-17.35c9.583,-0 17.35,7.766 17.35,17.35Z" style="fill:#e1e8f3;fill-rule:nonzero;"/><path d="M679.035,750.458c-20.404,33.546 -19.967,74.7 -39.313,108.204c-9.375,16.225 -15.483,27.088 -2.35,43.558c8.525,10.692 19.921,16.842 33.1,10.417c26.467,-12.9 44.584,-48.871 54,-75.104c10.73,-29.904 15.559,-61.979 13.45,-93.708c39.084,31.983 91.121,47.645 141.367,42.55c33.725,-3.425 66.171,-15.705 99.988,-18.084c55.462,-3.912 109.254,19.025 157.8,46.138c1.262,-21.692 -7.063,-43.004 -18.784,-61.304c-30.408,-47.492 -83.221,-77.542 -138.246,-89.913c-55.02,-12.367 -112.433,-8.675 -168.204,-0.308c-55.696,8.35 -103.329,39.087 -132.808,87.554Z" style="fill:#3558a8;fill-rule:nonzero;"/><path d="M1084.74,977.704c0,20.033 -16.3,36.337 -36.337,36.337l-83.675,0c-20.038,0 -36.338,-16.304 -36.338,-36.337l0,-44.325c0,-20.038 16.3,-36.338 36.338,-36.338l83.675,0c20.037,0 36.337,16.3 36.337,36.338l0,44.325Zm-222.708,-0c-0,20.033 -16.3,36.337 -36.338,36.337l-83.67,0c-20.038,0 -36.338,-16.304 -36.338,-36.337l0,-44.325c0,-20.038 16.3,-36.338 36.338,-36.338l83.67,0c20.038,0 36.338,16.3 36.338,36.338l-0,44.325Zm366.971,-62.059c-19.034,-64.65 -100.504,-17.1 -135.729,6.996c-4.859,-20.296 -23.109,-35.446 -44.871,-35.446l-83.675,0c-25.467,0 -46.184,20.717 -46.184,46.184l0,26.604c-13.208,-12.267 -32.916,-12.663 -46.666,-1.008l-0,-25.596c-0,-25.467 -20.717,-46.184 -46.184,-46.184l-83.67,0c-21.759,0 -40,15.142 -44.867,35.425c-35.242,-24.104 -116.667,-71.604 -135.7,-6.975c-1.583,5.388 6.8,7.671 8.375,2.309c16.996,-57.709 96.462,-6.234 125.283,13.775l0.792,0.337c-0.013,0.442 -0.067,0.867 -0.067,1.313l0,44.325c0,25.462 20.717,46.179 46.184,46.179l83.67,-0c25.467,-0 46.184,-20.717 46.184,-46.179l-0,-5.775c12.054,-18.025 35.891,-16.759 46.666,2.012l0,3.763c0,25.462 20.717,46.179 46.184,46.179l83.675,-0c25.462,-0 46.179,-20.717 46.179,-46.179l-0,-44.325c-0,-0.438 -0.054,-0.863 -0.063,-1.296l0.829,-0.354c28.821,-20.009 108.288,-71.484 125.28,-13.775c1.579,5.362 9.962,3.079 8.375,-2.309Z" style="fill:#aadee8;fill-rule:nonzero;"/><path d="M2368.69,1522.65c-0.737,-0.242 -1.471,-0.509 -2.196,-0.779c0.4,0.066 0.8,0.133 1.2,0.195l0.996,0.584Zm382.45,-31.863c3.521,-9.45 -3.633,-19.704 -12.054,-25.262c-14.1,-9.304 -31.842,-11.092 -48.733,-10.688c-8.93,0.217 -17.934,0.863 -26.759,2.259c-1.708,0.27 -3.387,0.645 -5.054,1.066c14.725,-9.791 28.8,-20.554 42.088,-32.241c23.779,-7.63 47.487,-16.955 64.92,-34.563c11.421,-11.533 19.809,-27.592 17.242,-43.617c-0.5,-3.116 -1.45,-6.258 -3.462,-8.687c-3.321,-4.008 -9.063,-5.375 -14.205,-4.583c-5.141,0.795 -9.804,3.429 -14.141,6.304c-28.863,19.121 -47.942,50.112 -60,82.629c-10.021,8.571 -20.484,16.612 -31.338,24.108c5.242,-6.987 9.863,-13.479 10.488,-14.562c8.312,-14.35 14.325,-30.463 17.441,-46.409c1.059,-5.416 1.825,-11.004 0.871,-16.437c-0.958,-5.438 -3.879,-10.758 -8.7,-13.446c-8.808,-4.917 -20.029,0.6 -26.8,8.079c-11.337,12.525 -15.791,29.788 -17.958,46.546c-2.238,17.333 -3.988,34.225 4.442,49.329c-22.059,13.321 -45.442,24.488 -69.663,33.396c20.825,-14.408 34.892,-37.933 41.884,-62.537c1.508,-5.313 2.741,-10.813 2.245,-16.309c-0.5,-5.496 -2.962,-11.046 -7.541,-14.129c-8.363,-5.633 -20.009,-1.079 -27.379,5.804c-12.351,11.529 -18.242,28.363 -21.801,44.875c-3.379,15.675 -5.066,31.713 -5.016,47.746l1.608,0.1c-19.675,6.329 -39.833,11.121 -60.212,14.404c14.958,-8.546 28.012,-20.941 38.183,-34.941c3.242,-4.463 6.296,-9.205 7.721,-14.534c1.425,-5.333 1.021,-11.391 -2.217,-15.862c-5.912,-8.171 -18.417,-7.9 -27.704,-3.975c-15.567,6.575 -26.888,20.346 -35.917,34.629c-7.8,12.333 -14.37,25.442 -19.616,39.058c-18.413,1.109 -36.88,0.921 -55.238,-0.604c18.088,-6.45 34.538,-18.279 47.642,-32.517c3.737,-4.062 7.317,-8.416 9.35,-13.55c2.029,-5.129 2.329,-11.195 -0.371,-16.008c-4.929,-8.8 -17.379,-9.975 -27.062,-7.15c-16.217,4.733 -29.055,17.108 -39.671,30.25c-8.746,10.821 -16.471,22.471 -23.054,34.729c-14.38,-2.516 -28.625,-5.858 -42.642,-10.133c-5.034,-1.538 -8.275,6.058 -3.179,7.612c14.341,4.375 28.908,7.805 43.6,10.396c-0.634,22.963 14.141,41.35 26.716,59.096c9.184,12.963 35.2,35.263 52.221,21.967c7.95,-6.213 7.225,-18.692 2.963,-27.834c-7.142,-15.312 -21.317,-26.125 -35.921,-34.625c-7.717,-4.495 -15.729,-8.658 -23.979,-12.095c-5.075,-2.109 -10.429,-3.25 -15.634,-4.888c0.996,-0.004 1.984,-0.054 2.971,-0.092c27.917,4.2 56.233,5.28 84.388,3.409c3.058,21.479 19.091,37.358 33.045,52.883c10.617,11.813 39.034,30.958 54.409,15.783c7.175,-7.083 5.017,-19.4 -0.275,-27.987c-8.858,-14.388 -24.192,-23.488 -39.675,-30.246c-8.188,-3.571 -16.625,-6.783 -25.217,-9.242c-3.546,-1.012 -7.171,-1.575 -10.787,-2.141c30.179,-2.871 60.062,-9.084 88.937,-18.467c9.938,20.258 31.104,29.921 50.088,39.975c14.033,7.433 47.304,15.629 56.516,-3.908c4.3,-9.125 -1.971,-19.946 -9.891,-26.188c-13.271,-10.454 -30.8,-13.725 -47.667,-14.737c-8.917,-0.534 -17.942,-0.646 -26.854,0.004c-5.204,0.379 -10.242,1.654 -15.346,2.537c27.833,-9.575 54.667,-22.058 79.829,-37.304c7.863,10.467 20.538,18.313 31.567,24.575c5.421,3.079 11.908,6.475 18.696,9.238c8.229,3.346 16.9,5.762 24.662,5.55c11.475,-0.317 27.534,-3.85 32,-15.838Z" style="fill:#3fc1c4;fill-rule:nonzero;"/><path d="M2224.76,1528.83c90.283,-19.063 184.937,-16.054 274.108,7.396c83.529,21.962 170.183,59.12 217.167,135.525c16.825,27.362 25.091,63.42 9.171,91.32c-10.817,18.959 -30.884,30.842 -51.334,38.463c-81.358,30.329 -173.391,4.404 -249.908,-36.633c-90.367,-48.463 -169.383,-117.938 -229.013,-201.363" style="fill:#aadee8;fill-rule:nonzero;"/><path d="M2517.06,1653.33c0.029,4.575 1.296,17.021 3.9,34.75c3.3,22.537 8.933,53.533 16.925,87.379c2.85,12.017 5.8,23.546 8.741,34.429c2.171,0.4 4.342,0.763 6.513,1.117c-2.983,-11.65 -6.067,-24.063 -9.129,-36.992c-7.958,-33.7 -14.254,-64.412 -18.667,-86.692c-3.304,-16.641 -5.65,-28.55 -7.004,-33.458c15.779,6.596 30.925,13.138 45.254,19.475c13.6,6.171 26.571,11.933 38.554,17.671c8.467,3.908 16.438,7.737 23.967,11.392c-0.421,2.462 0.4,14.483 2.967,32.604c2.754,19.521 7.816,46.087 15.546,74.962c2.05,-0.429 4.1,-0.866 6.141,-1.362c-7.762,-28.746 -13.475,-55.054 -17.304,-74.354c-3.371,-16.942 -5.492,-28.438 -6.625,-31.5c2.95,1.433 5.846,2.845 8.65,4.212c10.204,4.863 19.287,9.558 27.337,13.542c8.063,3.962 14.951,7.479 20.584,10.358c11.287,5.704 17.637,8.683 17.85,8.304c0.208,-0.379 -5.738,-4.083 -16.688,-10.458c-5.458,-3.213 -12.191,-7.054 -20.112,-11.321c-7.908,-4.287 -16.867,-9.271 -26.967,-14.396c-2.942,-1.529 -5.992,-3.104 -9.104,-4.7c7.954,-2.158 32.775,-12.179 63.429,-20.483c8.496,-2.35 16.65,-4.342 24.209,-6.067c-1.109,-1.796 -2.255,-3.55 -3.405,-5.304c-7.087,1.404 -14.633,3.138 -22.466,5.3c-32.775,8.892 -58.1,21.679 -63.446,25.692c-7.034,-3.6 -14.442,-7.329 -22.304,-11.125c-11.921,-5.959 -24.85,-11.917 -38.43,-18.25c-13.049,-5.942 -26.812,-12.025 -41.125,-18.134c11.184,-5.3 39.363,-20.895 73.455,-37.379c14.4,-7.012 28.029,-13.291 39.808,-18.625c-1.862,-1.212 -3.733,-2.404 -5.625,-3.579c-11.217,4.621 -23.787,10.175 -36.929,16.546c-21.942,10.654 -41.204,21.496 -54.788,29.908c-8.487,5.254 -14.783,9.517 -18.212,12.15c-14.883,-6.329 -30.371,-12.683 -46.329,-18.946c-19.292,-7.495 -38.15,-14.416 -56.304,-20.775c5.391,-3.283 13.708,-8.608 24.316,-15.287c19.046,-12.013 45.609,-28.175 75.758,-44.583c2.905,-1.575 5.771,-3.105 8.63,-4.625c-2.834,-0.88 -5.667,-1.734 -8.504,-2.571c-1.051,0.562 -2.08,1.096 -3.134,1.666c-30.341,16.517 -56.717,33.388 -75.212,46.405c-11.163,7.845 -19.488,14.187 -24.259,18.145c-11.346,-3.958 -22.395,-7.691 -33.079,-11.2c-14.279,-4.541 -27.825,-8.92 -40.625,-12.616c-9.983,-3.029 -19.462,-5.709 -28.362,-8.154c4.195,-2.98 11.195,-8.338 20.458,-15.163c15.121,-11.162 36.454,-25.942 61.188,-40.358c1.15,-0.667 2.279,-1.296 3.42,-1.95c-3.641,-0.334 -7.287,-0.617 -10.933,-0.888c-23.117,13.821 -42.737,28.259 -56.412,39.692c-9.667,8.067 -16.48,14.496 -19.821,18.092c-1.738,-0.48 -3.492,-0.959 -5.179,-1.421c-10.905,-3.071 -20.867,-5.479 -29.588,-7.684c-8.717,-2.229 -16.271,-3.966 -22.462,-5.304c-12.371,-2.729 -19.255,-4.037 -19.359,-3.612c-0.104,0.421 6.583,2.533 18.754,5.983c6.092,1.704 13.542,3.783 22.159,6.329c8.616,2.525 18.479,5.229 29.275,8.567c1.908,0.571 3.883,1.162 5.854,1.754c-0.083,1.733 -0.071,4.458 0.037,8.133c0.075,3.305 0.263,7.342 0.671,12.017c0.392,4.675 0.75,10.013 1.513,15.871c1.279,11.754 3.446,25.675 6.462,41.025c3.125,15.279 7.175,31.967 12.35,49.221c2.888,2.208 5.759,4.446 8.688,6.608c-0.884,-2.754 -1.771,-5.492 -2.63,-8.304c-5.137,-17.117 -9.32,-33.621 -12.737,-48.725c-3.296,-15.133 -5.892,-28.85 -7.725,-40.433c-2.817,-17.434 -4.375,-29.95 -5.396,-35.042c8.854,2.658 18.292,5.529 28.246,8.733c12.7,3.9 26.146,8.454 40.329,13.134c9.704,3.3 19.738,6.787 30.009,10.429c0.141,5.621 1.241,17.762 3.812,34.391c1.767,11.63 4.429,25.396 7.921,40.563c3.6,15.142 8.087,31.671 13.608,48.771c5.017,15.316 10.434,29.7 15.825,42.879c2.538,1.158 5.088,2.292 7.646,3.408l-0.421,-1.041c-5.654,-14.359 -11.521,-30.275 -17.066,-47.192c-5.467,-16.946 -10.084,-33.267 -13.959,-48.204c-3.771,-14.963 -6.862,-28.525 -9.175,-39.975c-3.2,-15.638 -5.283,-27.263 -6.592,-33.034c19.167,6.813 39.188,14.209 59.717,22.188c14.808,5.808 29.2,11.662 43.117,17.471Z" style="fill:#77cdd4;fill-rule:nonzero;"/><path d="M2217.14,1162.07c-24.308,-61.579 -33.533,-128.895 -27.637,-194.787c5.521,-61.721 21.416,-127.475 69.825,-169.871c17.341,-15.183 41.854,-25.358 63.504,-17.442c14.704,5.38 25.516,18.15 33.362,31.7c31.209,53.917 23.904,122.13 4.055,181.175c-23.446,69.738 -63.117,133.967 -114.98,186.15" style="fill:#04529c;fill-rule:nonzero;"/><path d="M2270.16,940.37c3.237,-0.57 11.887,-2.958 24.117,-6.925c15.545,-5.037 36.795,-12.741 59.779,-22.454c8.158,-3.454 15.962,-6.925 23.308,-10.312c0.021,-1.584 0.017,-3.163 0.008,-4.738c-7.883,3.504 -16.291,7.175 -25.075,10.892c-22.883,9.671 -43.854,17.808 -59.083,23.6c-11.375,4.333 -19.521,7.421 -22.829,8.967c2.775,-11.955 5.583,-23.455 8.35,-34.346c2.733,-10.363 5.254,-20.229 7.875,-29.396c1.754,-6.454 3.504,-12.554 5.187,-18.317c1.792,0 10.196,-2.016 22.709,-6.008c13.479,-4.288 31.662,-11.054 51.162,-19.988c-0.55,-1.4 -1.108,-2.795 -1.7,-4.179c-19.404,8.934 -37.329,16.134 -50.521,21.154c-11.583,4.421 -19.462,7.296 -21.487,8.467c0.658,-2.262 1.308,-4.479 1.942,-6.625c2.216,-7.8 4.445,-14.787 6.295,-20.962c1.838,-6.18 3.504,-11.471 4.863,-15.8c2.683,-8.671 4.029,-13.521 3.733,-13.625c-0.291,-0.105 -2.2,4.55 -5.396,13.058c-1.616,4.246 -3.529,9.471 -5.596,15.583c-2.087,6.113 -4.533,13.046 -6.949,20.804c-0.73,2.267 -1.48,4.613 -2.234,7.005c-2.483,-5.367 -12.546,-21.725 -22.096,-42.413c-2.683,-5.729 -5.071,-11.258 -7.195,-16.396c-1.138,0.996 -2.242,2.021 -3.346,3.042c1.845,4.846 3.979,9.975 6.445,15.258c10.221,22.117 22.305,38.5 25.784,41.8c-1.704,5.404 -3.454,11.092 -5.196,17.113c-2.787,9.146 -5.45,19.004 -8.304,29.371c-2.638,9.945 -5.288,20.408 -7.892,31.266c-5.091,-7.275 -19.504,-25.337 -35.25,-47.479c-6.687,-9.346 -12.762,-18.233 -17.95,-25.925c-0.633,1.463 -1.254,2.929 -1.858,4.408c4.612,7.38 10.05,15.605 16.133,24.138c10.167,14.246 20.146,26.571 27.729,35.167c4.734,5.375 8.505,9.32 10.775,11.429c-2.691,11.287 -5.329,23.004 -7.846,35.046c-2.987,14.545 -5.62,28.716 -7.945,42.316c-2.967,-3.416 -7.729,-8.662 -13.729,-15.366c-10.784,-12.03 -25.396,-28.884 -40.621,-48.242c-1.463,-1.867 -2.888,-3.708 -4.309,-5.55c-0.279,2.108 -0.545,4.217 -0.795,6.325c0.525,0.671 1.025,1.337 1.554,2.012c15.321,19.488 30.42,36.121 41.845,47.642c6.888,6.954 12.371,12.083 15.742,14.983c-1.437,8.5 -2.754,16.767 -3.954,24.746c-1.5,10.642 -2.975,20.75 -4.054,30.25c-0.946,7.425 -1.704,14.454 -2.367,21.038c-2.608,-2.609 -7.237,-6.921 -13.179,-12.654c-9.708,-9.355 -22.721,-22.675 -35.887,-38.442c-0.609,-0.733 -1.188,-1.454 -1.788,-2.183c0.2,2.612 0.438,5.225 0.683,7.837c12.55,14.696 25.113,26.846 34.842,35.146c6.867,5.875 12.233,9.917 15.175,11.854c-0.129,1.288 -0.262,2.583 -0.383,3.838c-0.867,8.075 -1.375,15.412 -1.888,21.845c-0.533,6.434 -0.854,11.984 -1.058,16.525c-0.446,9.08 -0.546,14.109 -0.234,14.13c0.309,0.02 1.001,-4.963 1.984,-13.988c0.475,-4.512 1.05,-10.033 1.821,-16.429c0.75,-6.4 1.483,-13.7 2.55,-21.738c0.175,-1.416 0.354,-2.887 0.537,-4.35c1.233,-0.145 3.163,-0.487 5.746,-1.004c2.329,-0.45 5.167,-1.062 8.421,-1.916c3.262,-0.834 6.996,-1.73 11.05,-2.971c8.158,-2.317 17.746,-5.513 28.241,-9.492c10.434,-4.046 21.755,-8.908 33.338,-14.637c1.217,-2.309 2.454,-4.609 3.633,-6.938c-1.841,0.954 -3.675,1.908 -5.558,2.854c-11.492,5.688 -22.667,10.625 -32.942,14.854c-10.308,4.146 -19.7,7.63 -27.675,10.313c-11.996,4.087 -20.658,6.692 -24.141,8.021c0.821,-6.584 1.716,-13.604 2.791,-21.029c1.238,-9.45 2.846,-19.509 4.455,-30.105c1.17,-7.258 2.433,-14.775 3.779,-22.479c3.958,-0.775 12.416,-3.008 23.871,-6.821c8.016,-2.641 17.433,-6.179 27.741,-10.466c10.279,-4.363 21.434,-9.521 32.871,-15.475c10.229,-5.384 19.758,-10.942 28.433,-16.338c0.513,-1.933 1.013,-3.871 1.496,-5.816l-0.687,0.425c-9.48,5.716 -20.034,11.779 -31.338,17.729c-11.329,5.9 -22.325,11.125 -32.425,15.658c-10.133,4.458 -19.354,8.275 -27.179,11.283c-10.675,4.138 -18.65,7.005 -22.575,8.621c2.521,-14.375 5.354,-29.425 8.533,-44.9c2.334,-11.175 4.75,-22.054 7.188,-32.596Z" style="fill:#174578;fill-rule:nonzero;"/><path d="M2108.83,1423.75c5.658,-83.662 31.091,-165.929 73.637,-238.187c39.313,-66.771 94.6,-125.992 164.579,-159.25c69.983,-33.254 155.575,-37.85 224.192,-1.863c18.833,9.88 36.296,22.717 50.037,38.946c28.896,34.125 39.23,80.742 38.709,125.454c-1.267,108.771 -63.129,212.33 -151.825,275.3c-88.696,62.967 -201.309,87.455 -309.813,79.759" style="fill:#4171b7;fill-rule:nonzero;"/><path d="M2483.47,1456.98c-64.612,-18.938 -122.3,-38.717 -163.817,-53.742c-18.299,-6.667 -34.583,-12.596 -49.154,-17.9c-3.858,-1.4 -7.1,-2.537 -9.791,-3.446c13.562,-12.433 28.537,-25.95 44.683,-40.296c19.275,-16.995 40.238,-35.112 62.408,-53.741c2.48,0.887 5.804,1.979 10.004,3.287c4.905,1.563 10.938,3.346 18.009,5.163c7.066,1.846 15.092,4.062 24.071,6.029c17.896,4.258 39.404,8.492 63.425,12.375c24.05,3.717 50.625,6.987 78.637,9.133c22.363,1.617 43.867,2.363 64.029,2.55c1.334,-2.696 2.617,-5.408 3.875,-8.137c-21.087,-0.438 -43.67,-1.342 -67.262,-3.042c-27.788,-2.133 -54.171,-5.133 -78.104,-8.392c-23.909,-3.425 -45.379,-7.008 -63.334,-10.475c-24.245,-4.62 -42.145,-8.508 -51.354,-10.154c5.825,-4.891 11.679,-9.791 17.671,-14.737c29.588,-24.317 58.238,-46.909 84.542,-67.15c11.179,-8.529 21.896,-16.621 32.116,-24.267c5.909,1.75 18.25,4.442 35.209,7.346c24.412,4.192 58.408,8.592 96.15,11.133c8.25,0.55 16.296,0.967 24.154,1.309c0.137,-2.834 0.217,-5.671 0.275,-8.513c-7.763,-0.421 -15.704,-0.892 -23.85,-1.433c-37.5,-2.525 -71.367,-5.934 -95.892,-8.559c-15.129,-1.616 -26.7,-2.841 -33.404,-3.254c12.904,-9.637 24.975,-18.516 35.954,-26.462c18.342,-13.221 34.367,-24.775 48.267,-34.8c11.396,-8.225 17.55,-13.017 17.225,-13.517c-0.329,-0.496 -7.108,3.342 -19.1,10.721c-12.021,7.333 -29.092,18.446 -49.913,32.592c-11.425,7.737 -23.962,16.483 -37.329,26.054c2.846,-19.117 7.734,-64.167 19.134,-115.704c3.704,-17.146 7.762,-33.342 11.729,-48.009c-2.546,-0.75 -5.117,-1.396 -7.688,-2.058c-4.396,14.675 -8.708,30.95 -12.496,48.217c-7.55,34.654 -11.516,66.57 -13.054,89.72c-0.896,13.338 -1.104,23.734 -0.912,30.188c-10.029,7.208 -20.504,14.854 -31.384,22.937c-26.65,19.95 -55.554,42.425 -85.237,66.825c-5.013,4.142 -9.879,8.246 -14.767,12.355c0.025,-8.796 -0.329,-23.563 -0.55,-42.75c-0.387,-31.971 0.054,-76.121 3.438,-124.738c2.529,-35.746 6.3,-68.833 10.046,-96.433c-2.6,0.854 -5.201,1.687 -7.771,2.612c-4.421,26.879 -8.475,58.809 -10.913,93.213c-3.408,48.979 -2.879,93.487 -0.917,125.558c1.25,20.7 2.905,36.192 4.217,44.588c-23.112,19.479 -44.866,38.545 -64.679,56.479c-16.292,14.866 -31.292,28.921 -44.771,41.896c-0.45,-8.346 -1.842,-23.675 -3.262,-44.105c-1.138,-15.758 -2.05,-34.541 -2.621,-55.395c-0.429,-20.863 -0.433,-43.8 0.4,-67.859c0.933,-24.058 2.625,-46.933 4.583,-67.708c2.1,-20.758 4.392,-39.425 6.684,-55.058c0.087,-0.613 0.175,-1.196 0.262,-1.8c-2.517,2.366 -5.029,4.737 -7.483,7.166c-2.646,14.267 -5.171,30.659 -7.392,48.834c-2.417,20.9 -4.363,43.97 -5.304,68.245c-0.842,24.28 -0.596,47.43 0.279,68.45c1.012,21.017 2.571,39.905 4.496,55.692c2.617,21.879 5.475,37.813 7.333,45.492l-0.129,0.125c-0.6,-0.113 -0.992,-0.138 -1.042,-0.021l0.505,0.537c-5.871,5.675 -11.471,11.159 -16.7,16.363c-17.867,17.733 -32.038,32.362 -41.538,42.758c-9.533,10.359 -14.596,16.279 -14.171,16.696c0.429,0.421 6.309,-4.704 16.563,-14.321c12.496,-11.725 26.9,-25.246 43.387,-40.716c5.859,-5.484 12.142,-11.305 18.738,-17.359c2.7,1.329 6.162,2.967 10.341,4.888c11.234,5.221 27.713,12.25 48.255,20.504c41.066,16.533 98.687,37.317 163.562,56.329c5.996,1.754 11.925,3.442 17.821,5.1c3.104,-2.071 6.246,-4.079 9.296,-6.242l0.087,-0.066c-8.154,-2.292 -16.416,-4.659 -24.775,-7.1Z" style="fill:#2b68b2;fill-rule:nonzero;"/><path d="M2320.61,1443.41c-1.079,0.392 -2.171,0.75 -3.263,1.096c0.525,-0.288 1.05,-0.575 1.575,-0.867l1.688,-0.229Zm415.745,-385.446c-4.516,-14.2 -22.179,-19.608 -37.029,-18.4c-24.875,2.025 -47.133,16.108 -66.408,31.967c-10.192,8.383 -20.071,17.341 -29.067,27.004c-1.741,1.867 -3.35,3.833 -4.908,5.837c8.208,-24.8 14.775,-50.137 19.579,-75.837c20.704,-30.529 39.783,-62.975 44.017,-99.333c2.771,-23.813 -2.1,-50.13 -19.684,-66.425c-3.42,-3.171 -7.387,-5.959 -11.941,-6.95c-7.513,-1.634 -15.434,2 -20.692,7.608c-5.258,5.608 -8.279,12.921 -10.708,20.212c-16.146,48.53 -10.096,101.95 5.5,150.755c-3.85,19.091 -8.688,37.975 -14.483,56.579c-0.271,-12.9 -0.813,-24.659 -1.067,-26.484c-3.413,-24.266 -11.092,-48.479 -21.996,-69.866c-3.704,-7.263 -7.9,-14.454 -13.962,-19.904c-6.067,-5.45 -14.313,-8.98 -22.367,-7.717c-14.717,2.312 -22.746,18.95 -23.804,33.812c-1.775,24.896 8.766,49.034 21.516,70.488c13.192,22.2 26.538,43.433 50.1,53.321c-13.52,35.587 -30.537,69.875 -50.591,102.3c11.091,-35.729 6.02,-75.9 -8.263,-110.884c-3.079,-7.55 -6.658,-15.07 -12.241,-21.008c-5.588,-5.933 -13.509,-10.146 -21.638,-9.562c-14.862,1.066 -24.258,16.97 -26.558,31.691c-3.859,24.659 4.625,49.596 15.529,72.046c10.346,21.308 22.996,41.496 37.658,60.096l1.963,-1.35c-17.117,25.283 -36.192,49.221 -56.905,71.604c9.613,-23.567 13.5,-49.871 12.575,-75.417c-0.291,-8.145 -1.062,-16.437 -4.262,-23.937c-3.2,-7.5 -9.187,-14.175 -17.025,-16.429c-14.321,-4.113 -28.613,7.587 -35.842,20.616c-12.112,21.821 -12.733,48.155 -10.225,72.988c2.167,21.45 6.467,42.679 12.771,63.296c-20.404,18.058 -42.05,34.666 -64.791,49.612c15.162,-23.975 23.516,-52.721 25.787,-81.212c0.646,-8.129 0.842,-16.454 -1.471,-24.271c-2.312,-7.817 -7.492,-15.146 -15.012,-18.283c-13.75,-5.742 -29.3,4.229 -37.988,16.333c-14.546,20.279 -18.204,46.367 -18.583,71.321c-0.308,20.554 1.317,41.133 4.829,61.387c-19.013,10.175 -38.625,19.263 -58.821,27.063c-7.25,2.8 -4.104,14.583 3.238,11.75c20.666,-7.979 40.729,-17.259 60.175,-27.634c20.179,27.284 54.116,35.213 84.904,44.396c22.487,6.704 73.058,8.938 80.742,-22.029c3.587,-14.462 -8.63,-28.321 -21.913,-35.067c-22.254,-11.304 -48.592,-10.962 -73.312,-7.545c-13.075,1.804 -26.18,4.258 -38.905,7.783c-7.825,2.162 -15.091,5.717 -22.637,8.55c1.154,-0.908 2.258,-1.867 3.375,-2.813c36.292,-20.541 70.204,-45.087 101.241,-72.904c23.121,22.192 56.234,26.054 86.601,31.396c23.112,4.063 73.6,0.442 77.654,-31.208c1.896,-14.779 -11.838,-27.129 -25.813,-32.3c-23.408,-8.659 -49.529,-5.279 -73.696,0.971c-12.775,3.304 -25.508,7.254 -37.741,12.225c-5.05,2.05 -9.771,4.695 -14.5,7.333c32.483,-30.829 61.579,-65.279 86.612,-102.492c30.013,14.504 63.429,6.454 94.663,0.859c23.096,-4.138 69.25,-24.921 62.162,-56.03c-3.308,-14.529 -20.454,-21.4 -35.354,-21.441c-24.958,-0.071 -48.321,12.096 -68.858,26.279c-10.859,7.5 -21.454,15.596 -31.229,24.475c-5.705,5.179 -10.401,11.25 -15.534,16.925c23.646,-36.492 43.484,-75.45 58.854,-116.1c18.68,5.008 40.567,2.587 59.096,-0.179c9.113,-1.359 19.75,-3.317 30.163,-6.288c12.616,-3.604 24.9,-8.696 33.733,-16.012c13.054,-10.821 28.517,-29.554 22.787,-47.567Z" style="fill:#04529c;fill-rule:nonzero;"/><path d="M2453.51,895.895c25.187,0 25.187,-39.054 -0,-39.054c-25.188,0 -25.188,39.054 -0,39.054Z" style="fill:#abc1e4;fill-rule:nonzero;"/><path d="M2733.73,988.945c19.591,0 19.591,-30.379 -0,-30.379c-19.588,0 -19.588,30.379 -0,30.379Z" style="fill:#abc1e4;fill-rule:nonzero;"/><path d="M2550.24,754.762c19.587,0 19.587,-30.375 -0,-30.375c-19.588,0 -19.588,30.375 -0,30.375Z" style="fill:#abc1e4;fill-rule:nonzero;"/><path d="M2863.75,1053.83c25.188,-0 25.188,-39.059 0,-39.059c-25.183,0 -25.183,39.059 0,39.059Z" style="fill:#abc1e4;fill-rule:nonzero;"/><path d="M2771.08,1281.64c19.592,0 19.592,-30.379 0,-30.379c-19.587,-0 -19.587,30.379 0,30.379Z" style="fill:#abc1e4;fill-rule:nonzero;"/><path d="M2788.46,1592.96c25.183,0 25.183,-39.054 -0,-39.054c-25.188,-0 -25.188,39.054 -0,39.054Z" style="fill:#abc1e4;fill-rule:nonzero;"/><path d="M1695.84,1638.14c-53.387,-0.9 -99.654,-54.462 -92.779,-107.416c3.742,-28.838 20.537,-55.171 21.613,-84.23c1.883,-50.983 -43.288,-90.137 -62.6,-137.354c-27.475,-67.162 -0.401,-142.987 26.554,-210.358c21.429,-53.567 41.758,-105.046 49.354,-162.654c7.442,-56.459 7.787,-114.309 25.733,-168.896c27.792,-84.533 117.679,-140.633 204.425,-131.458c11.109,1.175 34.659,-13.575 46.908,-16.134c17.292,-3.612 35.051,-4.941 52.671,-3.904c32.363,1.908 61.459,2.767 93.217,11.842c73.304,20.941 124.813,90.05 146.521,162.946c11.762,39.5 17.483,84.145 13.975,125.183c-3.646,42.679 -11.221,84.937 7.475,125.775c12.358,26.996 33.475,47.862 48.625,73.033c11.067,18.388 14.775,38.654 21.917,58.696c20.091,56.383 17.562,111.458 2.204,169.042c-5.538,20.771 -12.146,42.246 -8.209,63.379c4.9,26.279 25.15,47.025 34.055,72.229c10.491,29.717 3.975,63.638 -12.105,90.742c-16.079,27.104 -40.82,48.104 -67.341,65.125" style="fill:#3fc1c4;fill-rule:nonzero;"/><path d="M1692.36,921.433c-22.25,-6.113 -47.242,3.046 -62.346,20.496c-15.1,17.446 -20.708,41.979 -17.438,64.825c3.271,22.841 14.8,43.983 30.155,61.212c11.691,13.117 25.933,24.371 42.483,30.271c16.55,5.904 35.579,6.033 51.233,-1.946" style="fill:#f286b6;fill-rule:nonzero;"/><path d="M2169.56,921.433c22.25,-6.113 47.242,3.046 62.342,20.496c15.104,17.446 20.712,41.979 17.441,64.825c-3.271,22.841 -14.8,43.983 -30.154,61.212c-11.692,13.117 -25.933,24.371 -42.483,30.271c-16.554,5.904 -35.579,6.033 -51.233,-1.946" style="fill:#f286b6;fill-rule:nonzero;"/><path d="M1710.37,1086c0.617,-0.038 0.859,-8.834 -1.371,-22.838c-2.224,-13.958 -7.199,-33.133 -16.699,-52.687c-4.738,-9.775 -10.38,-18.663 -16.7,-25.809c-6.305,-7.162 -13.259,-12.466 -19.609,-15.879c-12.858,-6.929 -22.291,-6.437 -22.204,-5.925c-0.192,0.888 8.729,1.742 20.358,9.075c5.788,3.625 12.071,8.883 17.85,15.829c5.796,6.934 11.067,15.479 15.663,24.967c9.25,19.037 14.662,37.579 17.762,51.129c3.1,13.579 4.15,22.208 4.95,22.138Z" style="fill:#cd6396;fill-rule:nonzero;"/><path d="M1700.29,1077.21c0.45,-0.671 -3.729,-3.721 -9.004,-9.85c-5.267,-6.054 -11.413,-15.638 -14.15,-27.5c-2.725,-11.871 -1.388,-23.171 0.704,-30.921c2.062,-7.817 4.487,-12.387 3.787,-12.796c-0.5,-0.341 -4.133,3.65 -7.258,11.675c-3.137,7.913 -5.25,20.188 -2.262,33.2c3,13.004 10.266,23.121 16.549,28.867c6.321,5.858 11.334,7.854 11.634,7.325Z" style="fill:#cd6396;fill-rule:nonzero;"/><path d="M2151.55,1086c0.796,0.07 1.85,-8.559 4.95,-22.138c3.1,-13.55 8.509,-32.092 17.755,-51.129c4.604,-9.488 9.874,-18.033 15.67,-24.967c5.78,-6.946 12.063,-12.204 17.85,-15.829c11.629,-7.333 20.55,-8.187 20.359,-9.075c0.087,-0.512 -9.346,-1.004 -22.205,5.925c-6.349,3.413 -13.304,8.717 -19.608,15.879c-6.325,7.146 -11.962,16.034 -16.7,25.809c-9.5,19.554 -14.475,38.729 -16.704,52.687c-2.225,14.004 -1.983,22.8 -1.367,22.838Z" style="fill:#cd6396;fill-rule:nonzero;"/><path d="M2161.63,1077.21c0.304,0.529 5.316,-1.467 11.633,-7.325c6.288,-5.746 13.554,-15.863 16.554,-28.867c2.988,-13.012 0.875,-25.287 -2.262,-33.2c-3.129,-8.025 -6.759,-12.016 -7.259,-11.675c-0.7,0.409 1.725,4.979 3.788,12.796c2.092,7.75 3.429,19.05 0.704,30.921c-2.737,11.862 -8.883,21.446 -14.154,27.5c-5.271,6.129 -9.45,9.179 -9.004,9.85Z" style="fill:#cd6396;fill-rule:nonzero;"/><path d="M2166.14,868.175c-4.371,-30.513 -11.579,-61.088 -26.616,-88.175c-38.917,-70.096 -127.476,-105.471 -208.671,-96.463c-81.2,-9.008 -169.759,26.367 -208.675,96.463c-15.038,27.087 -22.246,57.662 -26.617,88.175c-14.2,99.191 -4.517,208.591 57.804,293.216c34.117,46.321 93.029,70.738 150.596,74.884c11.979,0.866 14.904,0.92 26.892,0.533c11.983,0.387 14.908,0.333 26.887,-0.533c57.567,-4.146 116.479,-28.563 150.596,-74.884c62.321,-84.625 72.004,-194.025 57.804,-293.216Z" style="fill:#f393bd;fill-rule:nonzero;"/><path d="M1916.11,1050.74c0.45,-0.4 -1.025,-2.504 -2.788,-6.529c-1.741,-4.021 -3.533,-10.167 -3.487,-17.996c-0.104,-7.842 1.787,-16.979 5.208,-27.087c3.246,-10.113 7.996,-21.355 9.975,-34.342c1.988,-12.871 1.242,-25.388 -1.058,-36.342c-2.35,-10.962 -6.25,-20.354 -10.334,-27.7c-8.312,-14.754 -16.737,-21.271 -17.3,-20.646c-0.975,0.834 5.788,8.534 12.413,23.105c3.262,7.275 6.396,16.283 8.217,26.6c1.775,10.312 2.245,21.912 0.412,33.795c-1.767,11.825 -6.129,22.834 -9.142,33.425c-3.158,10.517 -4.729,20.875 -3.858,29.455c0.679,8.608 3.567,15.283 6.325,19.195c2.792,3.95 5.088,5.384 5.417,5.067Z" style="fill:#cd6396;fill-rule:nonzero;"/><path d="M1825.85,998.404c2.85,-0 5.163,-12.434 5.163,-27.767c-0,-15.337 -2.313,-27.767 -5.163,-27.767c-2.85,0 -5.158,12.43 -5.158,27.767c0,15.333 2.308,27.767 5.158,27.767Z" style="fill:#cd6396;fill-rule:nonzero;"/><path d="M2018.66,998.404c2.85,-0 5.158,-12.434 5.158,-27.767c0,-15.337 -2.308,-27.767 -5.158,-27.767c-2.85,0 -5.163,12.43 -5.163,27.767c0,15.333 2.313,27.767 5.163,27.767Z" style="fill:#cd6396;fill-rule:nonzero;"/><path d="M2353.18,1771.42c-3.23,-48.105 -10.901,-95.909 -22.817,-142.63c-10.433,-40.904 -21.704,-94.2 -46.183,-129.25c-46.934,-67.204 -112.967,-104.47 -188.659,-131.687c-16.65,-5.983 -33.741,-11.95 -47.525,-23.046c-28.029,-22.567 -36.612,-92.346 -42.033,-127.917c-2.796,-18.341 -5.229,-36.737 -7.292,-55.175l-36.221,-22.829c2.792,-15.233 3.988,-30.421 0.725,-45.521l-36.475,22.988l-36.475,-22.988c-3.262,15.1 -2.071,30.288 0.725,45.521l-36.225,22.829c-2.062,18.438 -4.491,36.834 -7.287,55.175c-5.425,35.571 -14.009,105.35 -42.038,127.917c-13.783,11.096 -30.87,17.063 -47.52,23.046c-75.696,27.217 -141.725,64.483 -188.663,131.687c-24.479,35.05 -35.75,88.346 -46.183,129.25c-11.913,46.721 -19.588,94.525 -22.817,142.63c46.379,33.604 102.117,51.562 157.592,65.8c28.991,7.437 58.266,16.441 87.733,22.295c-0.388,0.43 -0.737,0.888 -1.125,1.317c8.129,0.9 16.267,1.767 24.408,2.604c52.238,7.917 105,10.642 157.875,9.988c52.871,0.654 105.634,-2.071 157.875,-9.988c8.142,-0.837 16.28,-1.704 24.405,-2.604c-0.388,-0.429 -0.738,-0.887 -1.121,-1.317c29.458,-5.854 58.733,-14.858 87.729,-22.295c55.475,-14.238 111.212,-32.196 157.592,-65.8Z" style="fill:#f393bd;fill-rule:nonzero;"/><path d="M1836.63,1085.69c0.558,-1.1 -10.45,-7.195 -27.004,-18.658c-4.129,-2.883 -8.642,-6.037 -13.284,-9.704c-4.775,-3.483 -9.57,-7.596 -14.7,-11.8c-10.045,-8.675 -20.666,-18.688 -31.029,-29.958c-10.262,-11.359 -19.25,-22.863 -26.954,-33.667c-3.712,-5.5 -7.362,-10.654 -10.392,-15.729c-3.216,-4.963 -5.941,-9.75 -8.429,-14.125c-9.879,-17.546 -14.929,-29.071 -16.079,-28.617c-0.842,0.304 2.413,12.608 11.229,31.15c2.221,4.621 4.717,9.658 7.763,14.871c2.85,5.325 6.375,10.729 10.012,16.467c7.558,11.283 16.604,23.22 27.129,34.862c10.621,11.558 21.667,21.671 32.205,30.242c5.374,4.154 10.429,8.162 15.47,11.496c4.909,3.512 9.692,6.466 14.088,9.108c17.641,10.492 29.596,14.875 29.975,14.062Z" style="fill:#e1e8f3;fill-rule:nonzero;"/><path d="M1803.52,1127.25c-0.254,-2.212 -17.637,-1.741 -38.746,-3.791c-21.12,-1.913 -38.112,-5.609 -38.775,-3.484c-0.683,1.934 15.979,9.175 38.05,11.192c22.067,2.125 39.784,-1.892 39.471,-3.917Z" style="fill:#e1e8f3;fill-rule:nonzero;"/><path d="M2024.34,1085.69c0.379,0.813 12.333,-3.57 29.975,-14.062c4.396,-2.642 9.184,-5.596 14.092,-9.108c5.037,-3.334 10.092,-7.342 15.466,-11.496c10.538,-8.571 21.584,-18.684 32.205,-30.242c10.525,-11.642 19.571,-23.579 27.125,-34.862c3.641,-5.738 7.162,-11.142 10.016,-16.467c3.046,-5.213 5.546,-10.25 7.767,-14.871c8.813,-18.542 12.067,-30.846 11.229,-31.15c-1.158,-0.454 -6.204,11.071 -16.087,28.617c-2.484,4.375 -5.209,9.162 -8.425,14.125c-3.034,5.075 -6.679,10.229 -10.392,15.729c-7.704,10.804 -16.692,22.308 -26.954,33.667c-10.359,11.27 -20.983,21.283 -31.029,29.958c-5.129,4.204 -9.925,8.317 -14.7,11.8c-4.642,3.667 -9.154,6.821 -13.284,9.704c-16.554,11.463 -27.562,17.558 -27.004,18.658Z" style="fill:#e1e8f3;fill-rule:nonzero;"/><path d="M2057.46,1127.25c-0.313,2.025 17.404,6.042 39.471,3.917c22.075,-2.017 38.733,-9.258 38.05,-11.192c-0.659,-2.125 -17.654,1.571 -38.775,3.484c-21.109,2.05 -38.492,1.579 -38.746,3.791Z" style="fill:#e1e8f3;fill-rule:nonzero;"/><path d="M2053.38,1077.65c-25.659,-18.055 -53.454,-54.109 -83.509,-64.575c-16.096,-5.605 -33.279,-9.005 -50.408,-8.942c-0.621,-0.021 -1.237,0.004 -1.858,-0.008c-0.617,0.012 -1.238,-0.013 -1.855,0.008c-17.129,-0.063 -34.312,3.337 -50.412,8.942c-30.054,10.466 -57.846,46.52 -83.504,64.575c-72.754,51.187 -22.879,118.479 39.517,153.183c59.812,33.267 132.704,33.262 192.508,0.004c62.4,-34.708 112.275,-102 39.521,-153.187Z" style="fill:#e1e8f3;fill-rule:nonzero;"/><path d="M1977.71,1042.84c0.516,-0.775 -4.838,-5.687 -15.267,-10.925c-5.187,-2.654 -11.704,-5.137 -19.15,-7.212c-7.475,-1.946 -15.896,-3.4 -24.821,-3.85c-8.929,-0.35 -17.446,0.341 -25.066,1.608c-7.6,1.4 -14.313,3.287 -19.717,5.462c-10.859,4.28 -16.629,8.696 -16.188,9.513c0.542,1.071 7.092,-1.533 17.859,-4.3c5.371,-1.429 11.862,-2.671 19.095,-3.621c7.255,-0.817 15.263,-1.254 23.671,-0.929c8.4,0.429 16.338,1.587 23.492,3.05c7.117,1.592 13.467,3.412 18.692,5.321c10.475,3.721 16.762,6.9 17.4,5.883Z" style="fill:#fff;fill-rule:nonzero;"/><path d="M1914.74,1223.14c2.138,0 3.871,-37.062 3.871,-82.783c0,-45.717 -1.733,-82.779 -3.871,-82.779c-2.137,-0 -3.871,37.062 -3.871,82.779c0,45.721 1.734,82.783 3.871,82.783Z" style="fill:#fff;fill-rule:nonzero;"/><path d="M1926.7,1873.43c52.871,0.654 105.634,-2.071 157.875,-9.988c8.142,-0.837 16.28,-1.704 24.405,-2.604c-0.388,-0.429 -0.738,-0.887 -1.121,-1.317c29.458,-5.854 58.733,-14.858 87.729,-22.295c55.475,-14.238 111.212,-32.196 157.592,-65.8c-3.23,-48.105 -10.901,-95.909 -22.817,-142.63c-10.433,-40.904 -21.704,-94.2 -46.183,-129.25c-46.934,-67.204 -112.967,-104.47 -188.659,-131.687c-9.679,-3.479 -19.487,-6.983 -28.725,-11.458c-32.754,27.225 -72.912,45.616 -115.162,51.204c-60.509,7.996 -123.709,-10.404 -171.417,-48.288c-7.313,3.146 -14.862,5.854 -22.337,8.542c-75.696,27.217 -141.725,64.483 -188.663,131.687c-24.479,35.05 -35.75,88.346 -46.183,129.25c-11.913,46.721 -19.588,94.525 -22.817,142.63c46.379,33.604 102.117,51.562 157.592,65.8c28.991,7.437 58.266,16.441 87.733,22.295c-0.388,0.43 -0.737,0.888 -1.125,1.317c8.129,0.9 16.263,1.767 24.408,2.604c52.238,7.917 105,10.642 157.875,9.988Z" style="fill:#24376e;fill-rule:nonzero;"/><path d="M1879.29,1120.22c6.696,21.85 -12.071,41.659 -33.733,36.855c-10.504,-2.33 -18.979,-10.805 -21.308,-21.309c-4.805,-21.662 15.004,-40.429 36.854,-33.733c8.771,2.687 15.5,9.417 18.187,18.187Z" style="fill:#fff;fill-rule:nonzero;"/><path d="M1869.45,1129.23c0,9.583 -7.766,17.35 -17.35,17.35c-9.583,-0 -17.35,-7.767 -17.35,-17.35c0,-9.584 7.767,-17.35 17.35,-17.35c9.584,-0 17.35,7.766 17.35,17.35Z" style="fill:#e1e8f3;fill-rule:nonzero;"/><path d="M1941.68,1459.88c66.721,-5.85 128.733,-37.234 178.583,-82.555c-8.129,-3.287 -16.367,-6.45 -24.746,-9.462c-9.679,-3.479 -19.487,-6.983 -28.725,-11.458c-32.754,27.225 -72.912,45.616 -115.162,51.204c-60.509,7.996 -123.709,-10.404 -171.413,-48.288c-7.317,3.146 -14.866,5.854 -22.341,8.542c-7.209,2.596 -14.3,5.312 -21.326,8.104c47.796,58.6 128.555,90.625 205.13,83.913Z" style="fill:#4171b7;fill-rule:nonzero;"/><path d="M1606.17,1456.13c-8.679,8.433 -16.929,17.517 -24.75,27.258c119.8,46.817 256.034,58.7 381.292,56.442c105.583,-1.904 211.608,-19.354 310.842,-54.508c-7.955,-10.075 -16.388,-19.413 -25.246,-28.109c-91.504,30.421 -188.646,45.534 -285.596,47.984c-115.925,2.933 -243.604,-7.392 -356.542,-49.067Z" style="fill:#4171b7;fill-rule:nonzero;"/><path d="M1536.98,1574.95c-3.305,11.545 -6.25,23.075 -9.013,34.141c131.525,66.763 290.421,82.896 434.742,80.292c124.675,-2.25 249.954,-26.175 363.954,-75.333c-2.717,-10.917 -5.583,-22.384 -8.787,-33.934c-110.938,48.459 -233.209,71.55 -355.167,74.638c-140.358,3.55 -297.946,-12.342 -425.729,-79.804Z" style="fill:#4171b7;fill-rule:nonzero;"/><path d="M1507.2,1707.47c-1.862,12.413 -3.425,24.867 -4.687,37.35c136.121,78.355 306.425,96.888 460.2,94.113c133.854,-2.413 268.396,-29.842 388.937,-86.633c-1.112,-12.117 -2.508,-24.205 -4.179,-36.259c-118.566,57.825 -251.858,84.904 -384.758,88.263c-151.484,3.833 -323.029,-14.971 -455.513,-96.834Z" style="fill:#4171b7;fill-rule:nonzero;"/><path d="M1863.81,881.216c0.367,-2.771 -4.842,-6.271 -14.259,-8.471c-9.316,-2.17 -23.179,-2.85 -37.924,1.621c-14.809,4.471 -26.384,13.542 -32.213,21.834c-5.979,8.333 -6.617,15.008 -4.283,16.412c2.487,1.567 7.283,-1.712 14.337,-5.829c7.017,-4.188 16.684,-9.167 28.192,-12.675c11.562,-3.521 22.875,-5.192 31.437,-6.775c8.546,-1.575 14.338,-3.246 14.713,-6.117Z" style="fill:#bd568d;fill-rule:nonzero;"/><path d="M1981.68,881.212c0.375,2.875 6.162,4.546 14.708,6.121c8.562,1.583 19.875,3.254 31.437,6.775c11.509,3.508 21.175,8.487 28.196,12.675c7.05,4.117 11.846,7.396 14.333,5.829c2.334,-1.404 1.696,-8.079 -4.283,-16.412c-5.829,-8.292 -17.404,-17.363 -32.212,-21.834c-14.746,-4.471 -28.609,-3.791 -37.925,-1.621c-9.417,2.2 -14.625,5.7 -14.254,8.467Z" style="fill:#bd568d;fill-rule:nonzero;"/><path d="M1689.73,797.766c-10.271,20.334 -15.163,42.513 -20.396,64.521c-3.188,13.388 -13.692,25.017 -9.159,39.367c3.188,10.108 11.196,16.875 21.913,16.483c23.35,-0.85 47.987,-27.537 59.871,-45.45c9.612,-14.496 16.262,-32.054 21.396,-48.575c5.45,-17.533 8.854,-35.708 10.058,-54.033c0.296,-4.488 -2.159,-51.221 -2.471,-51.088c-35.621,14.675 -63.85,44.384 -81.212,78.775Z" style="fill:#3fc1c4;fill-rule:nonzero;"/><path d="M1706.93,834.77c37.683,6.209 75.962,8.767 114.137,7.634c11.475,-21.646 19.667,-45.034 24.213,-69.113c0.704,21.921 1.408,43.842 2.112,65.763c65.15,6.229 131.021,4.825 195.846,-4.175c3.492,-0.488 7.279,-1.146 9.642,-3.759c2.216,-2.454 2.608,-6 2.891,-9.287c1.538,-17.754 3.075,-35.504 4.613,-53.254c7.137,18.962 14.271,37.925 21.408,56.887c1.7,4.525 3.621,9.338 7.617,12.059c3.346,2.279 7.583,2.691 11.625,2.95c23.725,1.512 47.642,0.016 70.992,-4.434c-11.496,-38.7 -23.959,-79.066 -52.338,-107.783c-46.05,-46.596 -119.275,-49.271 -184.767,-47.663c-66.879,1.646 -140.412,7.396 -187.937,54.48" style="fill:#3fc1c4;fill-rule:nonzero;"/><path d="M2110.51,775.308c3.321,38.529 14.288,76.158 29.754,111.6c3.346,7.675 7.004,15.4 12.771,21.467c5.762,6.066 14.05,10.304 22.35,9.262c7.883,-0.983 14.629,-6.587 18.7,-13.404c4.067,-6.821 5.804,-14.767 6.938,-22.625c6.041,-41.817 -3.859,-85.742 -27.255,-120.925" style="fill:#3fc1c4;fill-rule:nonzero;"/><path d="M2166.66,1737.97c-3.659,-64.816 -8.209,-123.42 -12.175,-165.779c-1.979,-21.179 -3.775,-38.304 -5.234,-50.116c-1.45,-11.813 -2.504,-18.321 -3.037,-18.275c-0.529,0.045 -0.496,6.641 0.033,18.525c0.534,11.887 1.5,29.066 2.779,50.283c2.755,46.054 6.15,102.921 9.909,165.796c2.033,38.304 3.937,74.362 5.679,107.121c2.296,-0.63 4.596,-1.255 6.896,-1.884c-1.117,-31.783 -2.713,-67.666 -4.85,-105.671Z" style="fill:#fff;fill-rule:nonzero;"/><path d="M1689.34,1845.67c1.737,-32.8 3.654,-68.909 5.687,-107.271c3.755,-62.875 7.155,-119.742 9.909,-165.796c1.279,-21.217 2.242,-38.396 2.779,-50.283c0.525,-11.884 0.563,-18.48 0.029,-18.525c-0.529,-0.046 -1.583,6.462 -3.033,18.275c-1.463,11.812 -3.254,28.937 -5.233,50.116c-3.967,42.359 -8.517,100.963 -12.18,165.779c-2.141,38.063 -3.737,74 -4.858,105.825c2.3,0.63 4.6,1.255 6.9,1.88Z" style="fill:#fff;fill-rule:nonzero;"/><path d="M2050.24,1181.67c-0.179,-0.158 -2.625,2.696 -7.492,7.405c-4.845,4.716 -12.15,11.283 -22.095,18.145c-9.942,6.842 -22.596,13.867 -37.542,19.459c-14.925,5.625 -32.183,9.554 -50.55,10.85c-36.884,2.625 -70.108,-5.779 -92.425,-14.679c-11.204,-4.513 -19.675,-9.5 -25.158,-13.438c-5.517,-3.908 -8.225,-6.533 -8.375,-6.362c-0.059,0.058 0.579,0.75 1.854,2.012c1.291,1.246 3.266,3.017 5.962,5.104c5.367,4.209 13.821,9.492 25.067,14.259c22.358,9.383 55.879,18.158 93.246,15.504c18.596,-1.309 36.091,-5.363 51.158,-11.175c15.096,-5.779 27.821,-13.046 37.737,-20.138c9.926,-7.116 17.121,-13.937 21.788,-18.883c2.367,-2.45 4.058,-4.483 5.187,-5.875c1.138,-1.383 1.705,-2.133 1.638,-2.188Z" style="fill:#fff;fill-rule:nonzero;"/><path d="M1955.38,1053.12c0.12,-0.271 -3.684,-2.363 -10.259,-4.813c-6.55,-2.429 -15.996,-5.133 -26.766,-5.817c-10.775,-0.7 -20.567,1.034 -27.217,3.355c-6.692,2.295 -10.321,4.8 -10.183,5.029c0.174,0.354 4.041,-1.584 10.683,-3.4c6.608,-1.854 16.1,-3.259 26.567,-2.584c10.47,0.667 19.766,3.038 26.379,5.034c6.621,2.004 10.654,3.533 10.796,3.196Z" style="fill:#fff;fill-rule:nonzero;"/><path d="M1323.68,788.4c-40.2,-6.713 -72.588,-39.634 -87.413,-77.6c-38.092,-97.55 25.542,-213.155 129.192,-234.3c82.654,-16.859 172.229,20.779 214.546,94.579c46.733,81.508 9.433,182.541 -69.088,229.641" style="fill:#1f3160;fill-rule:nonzero;"/><path d="M1527.09,512.295c-13.246,3.367 -27.433,6.438 -42.288,9.767c-32.587,7.271 -69.096,14.671 -104.875,30.492c-17.804,7.95 -34.395,17.704 -48.62,29.587c-7.071,5.988 -13.509,12.575 -18.796,19.867c-5.309,7.271 -9.325,15.262 -12.117,23.379c-5.525,16.333 -6.125,32.963 -4.379,47.938c1.779,15.05 6.121,28.591 11.133,40.325c10.271,23.479 22.509,40.237 30.763,51.712c4.195,5.721 7.587,10.054 9.916,12.971c2.346,2.904 3.646,4.375 3.792,4.271c0.142,-0.109 -0.879,-1.788 -2.95,-4.888c-2.817,-4.171 -5.817,-8.616 -9.117,-13.508c-7.725,-11.779 -19.404,-28.771 -29.037,-51.967c-4.7,-11.604 -8.708,-24.804 -10.246,-39.396c-1.512,-14.512 -0.742,-30.475 4.621,-45.912c2.712,-7.679 6.533,-15.158 11.6,-22.017c5.046,-6.879 11.229,-13.158 18.071,-18.908c13.791,-11.429 30.033,-20.963 47.47,-28.742c35.063,-15.521 71.259,-23.046 103.809,-30.562c16.079,-3.65 31.379,-7.217 45.608,-11.104c-1.441,-1.117 -2.887,-2.23 -4.358,-3.305Z" style="fill:#16264d;fill-rule:nonzero;"/><path d="M1593.67,602.404c-1.296,0.271 -2.546,0.604 -3.871,0.833c-12.054,2.038 -25.208,2.279 -39.05,1.308c-13.85,-0.875 -28.412,-2.791 -43.733,-3.662c-15.312,-0.958 -31.458,-0.1 -47.5,3.121c-32.154,6.304 -60.808,22.208 -80.071,43.275c-19.379,21.233 -27.862,46.962 -29.358,68.246c-0.8,10.725 0.087,20.483 1.742,28.833c0.474,2.033 0.941,4.033 1.4,6.004c0.512,1.908 1.183,3.696 1.733,5.433c1.012,3.509 2.566,6.484 3.721,9.234c2.658,5.35 5.033,9.35 6.996,11.808c1.862,2.521 2.904,3.783 3.05,3.679c0.141,-0.108 -0.617,-1.575 -2.18,-4.246c-1.658,-2.612 -3.708,-6.704 -6.029,-12.058c-0.987,-2.754 -2.371,-5.704 -3.216,-9.167c-0.463,-1.712 -1.051,-3.47 -1.484,-5.341c-0.379,-1.929 -0.762,-3.892 -1.158,-5.884c-1.334,-8.158 -1.942,-17.625 -0.942,-27.983c1.913,-20.579 10.471,-45.179 29.221,-65.337c18.708,-20.067 46.375,-35.313 77.596,-41.438c15.604,-3.121 31.167,-4 46.212,-3.129c15.067,0.783 29.65,2.6 43.713,3.362c14.042,0.85 27.633,0.455 40.087,-1.845c1.455,-0.271 2.834,-0.659 4.259,-0.984c-0.379,-1.354 -0.721,-2.712 -1.138,-4.062Z" style="fill:#16264d;fill-rule:nonzero;"/><path d="M1569.79,699.12c-21.575,-3.191 -42.429,-6.666 -61.742,-6.25c-9.625,0.146 -18.804,1.246 -27.191,3.321c-8.367,2.084 -15.855,5.159 -22.284,8.663c-12.908,7.05 -21.254,16.05 -25.487,23c-1.138,1.7 -1.988,3.3 -2.654,4.721c-0.734,1.387 -1.259,2.6 -1.588,3.625c-0.729,2.016 -1.025,3.091 -0.858,3.158c0.446,0.196 2.079,-3.996 6.754,-10.367c4.596,-6.371 12.954,-14.554 25.533,-20.908c6.271,-3.158 13.521,-5.913 21.58,-7.729c8.05,-1.804 16.9,-2.717 26.249,-2.725c18.738,-0.159 39.242,3.383 60.951,6.6c6.933,1.021 13.825,1.858 20.629,2.454c0.616,-1.646 1.171,-3.313 1.737,-4.975c-7.083,-0.617 -14.304,-1.504 -21.629,-2.588Z" style="fill:#16264d;fill-rule:nonzero;"/><path d="M1346.86,774.204c0.65,-0.879 -15.854,-10.484 -36.65,-32.446c-10.383,-10.929 -21.521,-25.146 -31.438,-42.408c-9.929,-17.225 -18.362,-37.625 -23.504,-59.975c-4.929,-22.4 -6.045,-44.446 -4.45,-64.267c0.529,-6.733 1.359,-13.188 2.379,-19.371c-2.175,3.454 -4.233,6.979 -6.17,10.567c-0.359,2.758 -0.688,5.55 -0.95,8.404c-1.892,20.229 -0.9,42.833 4.154,65.8c5.271,22.917 14.058,43.767 24.433,61.233c10.358,17.509 22.029,31.771 32.925,42.554c10.879,10.817 20.7,18.463 27.817,23.205c7.1,4.762 11.3,6.954 11.454,6.704Z" style="fill:#16264d;fill-rule:nonzero;"/><path d="M1146.47,1005.88c-2.154,-72.171 2.242,-148.859 41.413,-208.563c41.187,-62.762 119.854,-96.471 191.766,-82.171c8.659,1.725 17.359,4.088 26.154,3.434c7.121,-0.534 13.951,-3.021 20.78,-5.188c63.375,-20.112 130.625,1.667 181.762,42.488c51.575,41.17 77.592,111.054 83.929,177.329c4.08,42.65 0.621,85.641 -2.833,128.35" style="fill:#24376e;fill-rule:nonzero;"/><path d="M1176.96,1001c-22.25,-6.113 -47.242,3.045 -62.342,20.495c-15.104,17.446 -20.712,41.984 -17.441,64.825c3.27,22.842 14.8,43.988 30.154,61.213c11.691,13.121 25.933,24.367 42.483,30.271c16.554,5.904 35.579,6.033 51.233,-1.946" style="fill:#f286b6;fill-rule:nonzero;"/><path d="M1654.17,1001c22.25,-6.113 47.242,3.045 62.346,20.495c15.1,17.446 20.708,41.984 17.438,64.825c-3.271,22.842 -14.8,43.988 -30.155,61.213c-11.687,13.121 -25.933,24.367 -42.483,30.271c-16.55,5.904 -35.579,6.033 -51.233,-1.946" style="fill:#f286b6;fill-rule:nonzero;"/><path d="M1194.98,1165.57c0.617,-0.041 0.859,-8.833 -1.366,-22.837c-2.229,-13.959 -7.204,-33.134 -16.704,-52.688c-4.738,-9.775 -10.375,-18.662 -16.7,-25.804c-6.305,-7.167 -13.259,-12.471 -19.609,-15.883c-12.858,-6.929 -22.291,-6.438 -22.204,-5.925c-0.191,0.887 8.729,1.741 20.359,9.075c5.787,3.625 12.07,8.883 17.85,15.829c5.795,6.937 11.066,15.483 15.666,24.967c9.246,19.037 14.658,37.579 17.759,51.129c3.099,13.579 4.15,22.208 4.949,22.137Z" style="fill:#cd6396;fill-rule:nonzero;"/><path d="M1184.89,1156.78c0.45,-0.671 -3.729,-3.721 -9,-9.85c-5.271,-6.055 -11.417,-15.634 -14.154,-27.5c-2.725,-11.871 -1.388,-23.171 0.704,-30.921c2.063,-7.817 4.488,-12.384 3.788,-12.796c-0.5,-0.342 -4.13,3.65 -7.259,11.675c-3.137,7.917 -5.25,20.187 -2.262,33.2c3,13.008 10.266,23.121 16.55,28.867c6.321,5.854 11.333,7.854 11.633,7.325Z" style="fill:#cd6396;fill-rule:nonzero;"/><path d="M1636.15,1165.57c0.8,0.071 1.854,-8.558 4.95,-22.137c3.099,-13.55 8.512,-32.092 17.762,-51.129c4.596,-9.484 9.867,-18.03 15.663,-24.967c5.779,-6.946 12.066,-12.204 17.85,-15.829c11.629,-7.334 20.55,-8.188 20.358,-9.075c0.091,-0.513 -9.346,-1.004 -22.2,5.925c-6.354,3.412 -13.308,8.716 -19.613,15.883c-6.32,7.142 -11.962,16.029 -16.7,25.804c-9.5,19.554 -14.475,38.729 -16.7,52.688c-2.229,14.004 -1.987,22.796 -1.37,22.837Z" style="fill:#cd6396;fill-rule:nonzero;"/><path d="M1646.24,1156.78c0.3,0.529 5.313,-1.471 11.633,-7.325c6.284,-5.746 13.55,-15.859 16.55,-28.867c2.988,-13.013 0.875,-25.283 -2.262,-33.2c-3.125,-8.025 -6.758,-12.017 -7.258,-11.675c-0.7,0.412 1.725,4.979 3.787,12.796c2.092,7.75 3.429,19.05 0.704,30.921c-2.737,11.866 -8.879,21.445 -14.15,27.5c-5.275,6.129 -9.454,9.179 -9.004,9.85Z" style="fill:#cd6396;fill-rule:nonzero;"/><path d="M1650.75,947.741c-4.366,-30.508 -11.575,-61.087 -26.616,-88.175c-38.917,-70.096 -127.471,-105.471 -208.671,-96.462c-81.2,-9.009 -169.754,26.366 -208.675,96.462c-15.038,27.088 -22.246,57.667 -26.617,88.175c-14.2,99.192 -4.517,208.592 57.809,293.217c34.112,46.321 93.029,70.737 150.591,74.883c11.979,0.867 14.909,0.925 26.892,0.534c11.983,0.391 14.912,0.333 26.891,-0.534c57.563,-4.146 116.476,-28.562 150.592,-74.883c62.321,-84.625 72.004,-194.025 57.804,-293.217Z" style="fill:#f393bd;fill-rule:nonzero;"/><path d="M1837.78,1851c-3.229,-48.108 -10.9,-95.912 -22.817,-142.633c-10.429,-40.904 -21.7,-94.196 -46.183,-129.25c-46.934,-67.204 -112.963,-104.471 -188.659,-131.683c-16.65,-5.988 -33.741,-11.954 -47.521,-23.05c-28.033,-22.567 -36.612,-92.346 -42.037,-127.917c-2.796,-18.342 -5.225,-36.737 -7.292,-55.179l-36.22,-22.825c2.795,-15.233 3.987,-30.421 0.724,-45.521l-36.475,22.988l-36.474,-22.988c-3.263,15.1 -2.071,30.288 0.725,45.521l-36.225,22.825c-2.063,18.442 -4.492,36.837 -7.288,55.179c-5.425,35.571 -14.008,105.35 -42.038,127.917c-13.783,11.096 -30.87,17.062 -47.52,23.05c-75.696,27.212 -141.725,64.479 -188.663,131.683c-24.479,35.054 -35.75,88.346 -46.183,129.25c-11.913,46.721 -19.588,94.525 -22.817,142.633c46.384,33.6 102.121,51.559 157.596,65.796c28.988,7.438 58.263,16.442 87.729,22.296c-0.383,0.429 -0.733,0.888 -1.121,1.317c8.125,0.9 16.263,1.766 24.405,2.604c52.237,7.921 104.999,10.642 157.874,9.987c52.876,0.655 105.634,-2.066 157.876,-9.987c8.141,-0.838 16.279,-1.704 24.404,-2.604c-0.388,-0.429 -0.738,-0.888 -1.121,-1.317c29.467,-5.854 58.737,-14.858 87.729,-22.296c55.475,-14.237 111.212,-32.196 157.592,-65.796Z" style="fill:#f393bd;fill-rule:nonzero;"/><path d="M1837.78,1851c-3.229,-48.108 -10.9,-95.912 -22.817,-142.633c-10.429,-40.904 -21.7,-94.196 -46.183,-129.25c-46.934,-67.204 -112.963,-104.471 -188.659,-131.683c-8.258,-2.971 -16.625,-5.942 -24.641,-9.529c-40.5,27.12 -88.321,43.416 -137.046,45.47c-54.917,2.317 -110.179,-13.512 -156.283,-43.35c-6.476,2.671 -13.105,5.046 -19.671,7.409c-75.696,27.212 -141.725,64.479 -188.663,131.683c-24.479,35.054 -35.75,88.346 -46.183,129.25c-11.913,46.721 -19.588,94.525 -22.817,142.633c46.384,33.6 102.121,51.559 157.596,65.796c28.988,7.438 58.263,16.442 87.729,22.296c-0.383,0.429 -0.733,0.888 -1.121,1.317c8.125,0.9 16.263,1.766 24.405,2.604c52.237,7.917 104.999,10.642 157.874,9.987c52.876,0.655 105.634,-2.07 157.876,-9.987c8.141,-0.838 16.279,-1.704 24.404,-2.604c-0.388,-0.429 -0.738,-0.888 -1.121,-1.317c29.467,-5.854 58.737,-14.858 87.729,-22.296c55.475,-14.237 111.212,-32.196 157.592,-65.796Z" style="fill:#3fc1c4;fill-rule:nonzero;"/><path d="M1248.44,1089.72c1.288,-1.958 -21.258,-16.954 -41.742,-42.541c-20.758,-25.363 -30.724,-50.538 -32.912,-49.688c-0.925,0.334 0.354,7.125 4.567,17.413c4.183,10.271 11.633,23.896 22.329,37.146c10.729,13.22 22.504,23.345 31.675,29.583c9.187,6.258 15.562,8.925 16.083,8.087Z" style="fill:#e1e8f3;fill-rule:nonzero;"/><path d="M1273.04,1241.42c0.421,-2.229 -15.321,-6.421 -32.158,-16.516c-16.963,-9.888 -28.221,-21.659 -29.971,-20.221c-0.784,0.65 1.066,4.541 5.475,9.804c4.387,5.254 11.508,11.717 20.554,17.083c9.062,5.342 18.154,8.467 24.875,9.775c6.737,1.329 11.037,1.071 11.225,0.075Z" style="fill:#e1e8f3;fill-rule:nonzero;"/><path d="M1580.14,1089.72c0.521,0.838 6.896,-1.829 16.079,-8.087c9.175,-6.238 20.946,-16.363 31.675,-29.583c10.7,-13.25 18.15,-26.875 22.334,-37.146c4.212,-10.288 5.491,-17.079 4.562,-17.413c-2.183,-0.85 -12.154,24.325 -32.912,49.688c-20.48,25.587 -43.025,40.583 -41.738,42.541Z" style="fill:#e1e8f3;fill-rule:nonzero;"/><path d="M1555.55,1241.41c0.192,1 4.492,1.258 11.229,-0.071c6.717,-1.308 15.813,-4.433 24.871,-9.775c9.05,-5.366 16.171,-11.829 20.559,-17.083c4.408,-5.263 6.254,-9.154 5.47,-9.804c-1.745,-1.438 -13.004,10.333 -29.966,20.221c-16.838,10.095 -32.579,14.287 -32.163,16.512Z" style="fill:#e1e8f3;fill-rule:nonzero;"/><path d="M1557.74,1437.9c-40.5,27.12 -88.321,43.416 -137.05,45.47c-54.912,2.317 -110.175,-13.512 -156.279,-43.35c-6.475,2.671 -13.104,5.046 -19.671,7.409c-1.408,0.504 -2.783,1.037 -4.183,1.55c1.308,5.966 2.95,11.871 4.783,17.654c16.758,52.787 48.946,101.508 92.417,139.887c25.171,-40.791 50.341,-81.583 75.512,-122.375c25.171,40.792 50.342,81.584 75.517,122.375c43.467,-38.379 75.654,-87.1 92.412,-139.887c1.855,-5.846 3.513,-11.821 4.83,-17.85c-1.221,-0.45 -2.421,-0.917 -3.646,-1.354c-8.259,-2.971 -16.625,-5.942 -24.642,-9.529Z" style="fill:#fff;fill-rule:nonzero;"/><path d="M1407.7,1933.67c2.137,0 3.87,-85.187 3.87,-190.275c0,-105.083 -1.733,-190.271 -3.87,-190.271c-2.138,0 -3.871,85.188 -3.871,190.271c-0,105.088 1.733,190.275 3.871,190.275Z" style="fill:#fff;fill-rule:nonzero;"/><path d="M1667.56,1826.64c-13.279,-116.879 -25.767,-211.433 -27.892,-211.191c-2.125,0.241 6.921,95.187 20.2,212.066c3.738,32.896 7.413,64.021 10.813,91.767c2.279,-0.608 4.554,-1.2 6.825,-1.792c-2.888,-27.546 -6.25,-58.346 -9.946,-90.85Z" style="fill:#fff;fill-rule:nonzero;"/><path d="M1173.38,1615.45c-2.121,-0.242 -14.613,94.312 -27.892,211.191c-3.583,31.559 -6.858,61.492 -9.691,88.421c2.204,0.579 4.408,1.163 6.612,1.729l0.254,0.067c3.317,-27.133 6.888,-57.392 10.517,-89.342c13.279,-116.879 22.325,-211.825 20.2,-212.066Z" style="fill:#fff;fill-rule:nonzero;"/><path d="M1453.22,1659.76c0,12.1 -4.733,21.912 -10.57,21.912c-5.838,0 -10.571,-9.812 -10.571,-21.912c-0,-12.1 4.733,-21.908 10.571,-21.908c5.837,-0 10.57,9.808 10.57,21.908Z" style="fill:#24376e;fill-rule:nonzero;"/><path d="M1453.22,1765.3c0,12.1 -4.733,21.908 -10.57,21.908c-5.838,0 -10.571,-9.808 -10.571,-21.908c-0,-12.1 4.733,-21.913 10.571,-21.913c5.837,0 10.57,9.813 10.57,21.913Z" style="fill:#24376e;fill-rule:nonzero;"/><path d="M1453.22,1870.85c0,12.105 -4.733,21.913 -10.57,21.913c-5.838,-0 -10.571,-9.808 -10.571,-21.913c-0,-12.1 4.733,-21.908 10.571,-21.908c5.837,0 10.57,9.808 10.57,21.908Z" style="fill:#24376e;fill-rule:nonzero;"/><path d="M1245.55,792.008c-8.496,5.821 -16.601,12.208 -24.259,19.092c-20.154,18.112 -37.221,39.633 -50.421,63.291c-13.008,23.313 -19.021,46.992 -20.029,73.8c-0.691,18.454 2.65,45.971 26.538,46.279c23.391,0.3 47.5,-7.758 61.071,-27.637c11.862,-17.383 17.766,-37.883 27.125,-56.554c11.679,-23.296 27.991,-46.192 52.22,-55.788c14.017,-5.55 29.463,-6.137 44.03,-10.016c39.77,-10.584 70.879,-47.988 74.033,-89.025c-64.833,-14.567 -135.488,-0.996 -190.308,36.558Z" style="fill:#24376e;fill-rule:nonzero;"/><path d="M1398.29,773.241c-4.025,23.634 -3.829,48.475 4.475,70.967c8.304,22.492 25.471,42.371 48.062,50.4c23.634,8.4 51.3,3.675 73.017,16.221c21.992,12.696 31.867,39.687 52.233,54.854c11.48,8.542 24.942,12.596 38.263,17.075c12.3,4.137 32.696,20.529 46.242,16.525c23.066,-6.825 8.212,-47.888 6.62,-62.063c-2.262,-20.158 -6.137,-40.17 -12.408,-59.483c-12.275,-37.817 -34.383,-73.304 -66.717,-96.433c-45.316,-32.421 -104.529,-37.142 -160.229,-35.729" style="fill:#24376e;fill-rule:nonzero;"/><path d="M1347.24,968.729c0.654,-2.646 -3.717,-6.625 -12.417,-8.838c-4.325,-1.129 -9.65,-1.579 -15.554,-1.216c-5.875,0.475 -12.304,1.837 -18.654,4.362c-6.321,2.592 -11.896,6.079 -16.45,9.817c-4.5,3.833 -8.017,7.858 -10.346,11.675c-4.725,7.633 -5.108,13.533 -2.8,14.979c2.483,1.6 7.046,-1.054 13.267,-4.804c6.229,-3.809 14.408,-8.584 24.058,-12.529c9.688,-3.863 18.888,-6.105 26.013,-7.692c7.083,-1.621 12.208,-2.883 12.883,-5.754Z" style="fill:#bd568d;fill-rule:nonzero;"/><path d="M1470.95,968.729c0.679,2.871 5.804,4.133 12.883,5.754c7.125,1.587 16.329,3.829 26.012,7.692c9.655,3.945 17.829,8.72 24.059,12.529c6.22,3.75 10.787,6.404 13.266,4.804c2.309,-1.446 1.93,-7.346 -2.8,-14.979c-2.325,-3.817 -5.846,-7.842 -10.345,-11.675c-4.555,-3.738 -10.13,-7.225 -16.45,-9.817c-6.351,-2.525 -12.78,-3.887 -18.655,-4.362c-5.9,-0.363 -11.229,0.087 -15.55,1.216c-8.704,2.209 -13.075,6.192 -12.42,8.838Z" style="fill:#bd568d;fill-rule:nonzero;"/><path d="M1417.12,1146.7c0.45,-0.421 -1.25,-2.629 -3.471,-6.904c-2.212,-4.267 -4.691,-10.8 -5.55,-19.334c-0.925,-8.512 -0.337,-18.791 2.034,-30.079c2.191,-11.354 5.891,-23.871 7.454,-37.867c1.708,-14.037 -0.542,-27.958 -4.846,-39.329c-4.317,-11.462 -10.2,-20.758 -15.717,-27.958c-11.175,-14.388 -20.366,-20.95 -20.941,-20.321c-0.913,0.883 6.858,8.838 16.466,23.475c4.755,7.321 9.825,16.429 13.467,27.183c3.621,10.771 5.433,23.096 3.871,36.125c-1.438,13.067 -4.871,25.58 -6.775,37.417c-2.079,11.838 -2.163,23.05 -0.425,32.163c1.65,9.166 5.229,16.079 8.421,20.145c3.216,4.092 5.7,5.605 6.012,5.284Z" style="fill:#cd6396;fill-rule:nonzero;"/><path d="M1311.81,1066.93c2.85,-0 5.158,-12.433 5.158,-27.767c0,-15.337 -2.308,-27.771 -5.158,-27.771c-2.85,0 -5.163,12.434 -5.163,27.771c0,15.334 2.313,27.767 5.163,27.767Z" style="fill:#cd6396;fill-rule:nonzero;"/><path d="M1504.62,1066.93c2.85,-0 5.163,-12.433 5.163,-27.767c-0,-15.337 -2.313,-27.771 -5.163,-27.771c-2.85,0 -5.162,12.434 -5.162,27.771c-0,15.334 2.312,27.767 5.162,27.767Z" style="fill:#cd6396;fill-rule:nonzero;"/><path d="M1610.07,1078.44c-2.866,-13.112 -21.041,-8.1 -29.883,-6.775c-21.767,3.254 -44.258,4.558 -66.354,4.558c-31.85,1.325 -63.742,1.446 -95.604,0.546l-0,-0.158c-1.092,0.037 -2.18,0.05 -3.267,0.079c-1.088,-0.029 -2.175,-0.042 -3.267,-0.079l0,0.158c-31.862,0.9 -63.754,0.779 -95.604,-0.546c-22.096,0 -44.588,-1.304 -66.354,-4.558c-8.842,-1.325 -27.017,-6.337 -29.883,6.775c-4.588,20.958 -0.184,47.946 3.049,68.954c5.626,36.588 14.796,77.713 30.813,111.046c26.767,55.717 85.125,59.492 133.775,64.008c8.675,0.809 17.379,1.159 26.083,1.246l1.109,-0.021l0.279,-0.008l0.279,0.008l1.108,0.021c8.705,-0.087 17.409,-0.437 26.084,-1.246c48.65,-4.516 107.008,-8.291 133.779,-64.008c16.012,-33.333 25.183,-74.458 30.808,-111.046c3.234,-21.008 7.638,-47.996 3.05,-68.954Z" style="fill:#e1e8f3;fill-rule:nonzero;"/><path d="M1570.34,1108.36c-0.071,-0.35 -4.371,0.146 -12.067,1.333c-3.846,0.617 -8.546,1.371 -14.025,2.104c-5.475,0.759 -11.679,1.784 -18.587,2.571c-13.78,1.846 -30.246,3.546 -48.559,4.946c-18.32,1.263 -38.495,2.142 -59.691,2.188c-21.192,-0.055 -41.367,-0.946 -59.688,-2.221c-18.312,-1.409 -34.775,-3.121 -48.55,-4.971c-6.912,-0.792 -13.117,-1.817 -18.587,-2.579c-5.479,-0.742 -10.179,-1.496 -14.025,-2.113c-7.696,-1.196 -11.992,-1.691 -12.067,-1.341c-0.071,0.35 4.088,1.508 11.688,3.312c3.795,0.925 8.458,1.971 13.912,2.983c5.446,1.038 11.637,2.321 18.55,3.35c13.775,2.321 30.292,4.421 48.7,6.1c18.417,1.542 38.729,2.584 60.067,2.642c21.341,-0.046 41.654,-1.075 60.071,-2.608c18.408,-1.671 34.929,-3.763 48.704,-6.075c6.912,-1.025 13.104,-2.304 18.554,-3.338c5.454,-1.012 10.116,-2.054 13.912,-2.979c7.6,-1.796 11.763,-2.954 11.688,-3.304Z" style="fill:#d0d6de;fill-rule:nonzero;"/><path d="M1555.94,1160.54c-0.075,-0.333 -4.012,0.188 -11.05,1.4c-3.516,0.634 -7.816,1.404 -12.829,2.159c-5.013,0.77 -10.683,1.82 -17.013,2.629c-12.612,1.879 -27.691,3.646 -44.47,5.096c-16.792,1.316 -35.292,2.258 -54.725,2.358c-19.438,-0 -37.938,-0.842 -54.738,-2.075c-16.787,-1.367 -31.875,-3.05 -44.491,-4.875c-6.334,-0.775 -12.013,-1.796 -17.025,-2.546c-5.017,-0.733 -9.321,-1.479 -12.838,-2.096c-7.046,-1.187 -10.983,-1.683 -11.058,-1.354c-0.079,0.333 3.721,1.467 10.666,3.238c3.471,0.904 7.734,1.933 12.725,2.925c4.988,1.016 10.655,2.279 16.984,3.283c12.62,2.279 27.766,4.333 44.654,5.962c16.9,1.492 35.546,2.48 55.133,2.475c19.588,-0.095 38.229,-1.183 55.121,-2.762c16.879,-1.708 32.012,-3.85 44.621,-6.183c6.329,-1.034 11.987,-2.33 16.971,-3.363c4.987,-1.017 9.246,-2.067 12.708,-2.987c6.942,-1.8 10.733,-2.95 10.654,-3.284Z" style="fill:#d0d6de;fill-rule:nonzero;"/><path d="M1537.65,1211.25c-0.196,-0.742 -13.746,2.608 -35.9,6.416c-11.075,1.929 -24.33,3.788 -39.096,5.296c-14.775,1.396 -31.067,2.425 -48.196,2.588c-17.125,0.079 -33.429,-0.696 -48.225,-1.875c-14.788,-1.317 -28.067,-2.959 -39.163,-4.75c-22.204,-3.513 -35.791,-6.696 -35.979,-5.95c-0.079,0.308 3.242,1.404 9.329,3.125c3.038,0.883 6.775,1.887 11.163,2.854c4.379,0.983 9.35,2.225 14.925,3.2c11.096,2.216 24.437,4.208 39.329,5.771c14.904,1.425 31.367,2.341 48.654,2.258c17.292,-0.163 33.738,-1.333 48.617,-2.975c14.871,-1.758 28.179,-3.967 39.25,-6.321c11.067,-2.329 19.954,-4.546 26.004,-6.396c6.063,-1.796 9.367,-2.933 9.288,-3.241Z" style="fill:#d0d6de;fill-rule:nonzero;"/><path d="M1529.82,1263.18c-0.2,-0.721 -13.016,2.65 -34.004,6.504c-10.487,1.946 -23.05,3.837 -37.054,5.371c-14.013,1.425 -29.471,2.491 -45.725,2.679c-16.254,0.112 -31.729,-0.642 -45.767,-1.804c-14.025,-1.292 -26.625,-2.921 -37.141,-4.7c-21.05,-3.488 -33.917,-6.663 -34.105,-5.938c-0.083,0.304 3.059,1.384 8.817,3.088c2.875,0.871 6.413,1.862 10.571,2.821c4.15,0.975 8.858,2.204 14.142,3.166c10.52,2.196 23.183,4.167 37.32,5.704c14.15,1.4 29.784,2.288 46.204,2.175c16.426,-0.191 32.038,-1.395 46.159,-3.062c14.108,-1.771 26.725,-4.013 37.208,-6.371c10.484,-2.342 18.892,-4.558 24.608,-6.408c5.73,-1.792 8.855,-2.925 8.767,-3.225Z" style="fill:#d0d6de;fill-rule:nonzero;"/></g></svg>